<?xml version="1.0" encoding="utf-8"?>
<!-- Generator: Adobe Illustrator 27.2.0, SVG Export Plug-In . SVG Version: 6.00 Build 0)  -->
<svg version="1.1" id="Слой_1" xmlns="http://www.w3.org/2000/svg" xmlns:xlink="http://www.w3.org/1999/xlink" x="0px" y="0px"
	 viewBox="0 0 80 40.2" enable-background="new 0 0 80 40.2" xml:space="preserve">
<g>
	<path d="M0,40.2V16.6h17.1v5.6H5.9v2.7H10c2.6,0,4.6,0.7,6.2,2c1.6,1.3,2.3,3.2,2.3,5.6c0,2.4-0.7,4.3-2.2,5.7c-1.5,1.4-3.5,2-6,2
		H0z M5.9,34.7h3.9c0.9,0,1.6-0.2,2.1-0.6s0.7-1,0.7-1.9c0-0.7-0.3-1.3-0.8-1.8c-0.5-0.4-1.2-0.6-2-0.6h-4V34.7z M19.6,40.2V16.6h19
		v23.7h-5.9V22.3h-7.3v17.9H19.6z"/>
	<path d="M56.5,16.6H43.5c-1.6,0-2.9,1.5-2.9,3.3V37c0,1.8,1.3,3.3,2.9,3.3h13.1c1.6,0,2.9-1.5,2.9-3.3V19.9
		C59.5,18.1,58.1,16.6,56.5,16.6z M54.1,34.3h-8.2V22.5h8.2V34.3z"/>
	<path d="M77.1,16.6H64c-1.6,0-2.9,1.5-2.9,3.3V37c0,1.8,1.3,3.3,2.9,3.3h13.1c1.6,0,2.9-1.5,2.9-3.3V19.9
		C80,18.1,78.7,16.6,77.1,16.6z M74.6,34.3h-8.2V22.5h8.2V34.3z"/>
	<rect x="0.1" width="38.5" height="3.6"/>
	<rect x="0.1" y="7.2" width="38.5" height="3.5"/>
</g>
</svg>
