<svg xmlns="http://www.w3.org/2000/svg" width="42" height="42" fill-rule="evenodd"><g fill="#fff"><path d="M40.877 0h-40C.393 0 0 .397 0 .887v40.225c0 .5.393.887.877.887h40.245c.485 0 .877-.397.877-.887V.887c0-.5-.638-.887-1.123-.887zm-.89 40H2l.014-38H40l-.013 38z" fill-rule="nonzero"/><rect x="16" y="5" width="21" height="3" rx="1"/><circle cx="6.5" cy="6.5" r="1.5"/><circle cx="11.5" cy="6.5" r="1.5"/></g><path d="M30.443 27.3c.36-1.03.557-2.138.557-3.3s-.196-2.26-.557-3.3a.72.72 0 0 0-.032-.09C29.023 16.764 25.328 14 21 14s-8.023 2.764-9.412 6.62a.71.71 0 0 0-.032.09C11.196 21.74 11 22.848 11 24s.196 2.26.557 3.3a.72.72 0 0 0 .032.09C12.977 31.236 16.672 34 21 34s8.023-2.764 9.412-6.62c.013-.03.023-.06.032-.1zM21 32.567c-.38 0-.995-.69-1.508-2.23-.248-.743-.446-1.597-.59-2.526H23.1c-.144.93-.343 1.783-.6 2.526-.513 1.54-1.127 2.23-1.508 2.23zm-2.272-6.19c-.07-.764-.105-1.562-.105-2.378s.036-1.613.105-2.378h4.545c.07.764.105 1.562.105 2.378s-.036 1.613-.105 2.378h-4.545zM12.433 24a8.54 8.54 0 0 1 .336-2.378h4.52A27.9 27.9 0 0 0 17.189 24a27.86 27.86 0 0 0 .101 2.378h-4.52A8.54 8.54 0 0 1 12.433 24zM21 15.433c.38 0 .995.69 1.508 2.23a15.7 15.7 0 0 1 .59 2.526H18.9c.144-.93.343-1.783.59-2.526.513-1.54 1.127-2.23 1.508-2.23zm3.7 6.19h4.52a8.54 8.54 0 0 1 0 4.756H24.7a27.9 27.9 0 0 0 0-4.756zm3.96-1.433h-4.125c-.255-1.758-.692-3.335-1.306-4.458 2.38.645 4.35 2.292 5.43 4.458zm-9.9-4.458c-.614 1.122-1.05 2.7-1.306 4.458H13.33c1.08-2.166 3.052-3.813 5.43-4.458zm-5.43 12.08h4.125c.255 1.758.692 3.335 1.306 4.458-2.38-.645-4.35-2.292-5.43-4.458zm9.9 4.458c.614-1.122 1.05-2.7 1.306-4.458h4.125c-1.08 2.166-3.052 3.813-5.43 4.458z" fill="#72b2eb" fill-rule="nonzero"/></svg>