<?xml version="1.0" encoding="UTF-8"?>
<svg width="3728px" height="205px" viewBox="0 0 3728 205" version="1.1" xmlns="http://www.w3.org/2000/svg" xmlns:xlink="http://www.w3.org/1999/xlink">
    <!-- Generator: Sketch 45.2 (43514) - http://www.bohemiancoding.com/sketch -->
    <title>Lines_longer</title>
    <desc>Created with Sketch.</desc>
    <defs></defs>
    <g id="Spec" stroke="none" stroke-width="1" fill="none" fill-rule="evenodd" fill-opacity="0.15">
        <g id="Artboard-Copy-2" transform="translate(-33.000000, -15.000000)" fill-rule="nonzero" fill="#DFEBF8">
            <path d="M2373.71532,75.3730489 C2390.98291,78.0720949 2407.83451,81.3600599 2424.13412,84.541221 C2468.30308,93.1544118 2510.01209,101.286486 2559.60092,98.7012308 C2572.9506,98.0035114 2586.10329,96.0980089 2598.81999,94.2573873 C2614.78861,91.9476268 2631.30222,89.5560165 2648.66181,89.4492125 C2676.45515,89.2705405 2701.31457,94.8632752 2723.17005,99.7882356 C2773.35886,111.10746 2811.24797,115.382613 2859.72682,118.943078 C2890.1051,121.176977 2919.17541,125.379264 2947.28475,129.440809 C3003.57341,137.577874 3056.74216,145.258776 3118.1207,137.97215 C3138.53222,135.5476 3158.32975,131.607832 3177.4793,127.792834 C3197.73182,123.760236 3218.67833,119.588892 3240.55781,117.157355 C3252.26853,115.857741 3263.68726,115.137063 3274.737,114.439344 C3293.13756,113.277477 3310.52015,112.182486 3328.55473,108.604054 C3344.05136,105.530696 3357.61404,102.339553 3370.72373,99.2582085 C3417.78271,88.1908558 3454.97995,78.3401363 3520.96238,92.1672237 C3527.76492,93.1786831 3545.82014,94.8802293 3575.14153,95.0430193 C3602.13196,95.1928679 3664.08478,94.5297837 3761,93.0537669 L3761,95.0513846 C3664.33326,96.6606409 3602.38044,97.3046406 3575.14153,96.9833838 C3547.15349,96.6532917 3529.2059,96.8038312 3520.96126,95.0430193 C3457.6872,81.7844752 3420.88558,90.6623317 3373.52666,101.799544 C3360.32497,104.906841 3346.6733,108.11595 3330.99067,111.228238 C3312.18411,114.960388 3293.57555,116.134233 3275.57198,117.267154 C3264.67824,117.951897 3253.4125,118.665587 3242.00377,119.930266 C3220.64128,122.306903 3199.94477,126.42734 3179.92524,130.413025 C3160.5637,134.268947 3140.53617,138.253634 3119.66667,140.735079 C3101.74909,142.862175 3084.5575,143.759528 3067.83289,143.759528 C3025.65389,143.759528 2986.36482,138.079952 2945.44579,132.166806 C2917.54445,128.134208 2888.69813,123.963862 2858.76784,121.762902 C2809.719,118.159516 2771.35991,113.827467 2720.48111,102.356522 C2699.24962,97.5683102 2675.24218,92.1183135 2648.76281,92.3049709 C2632.3072,92.4077822 2616.94756,94.6307021 2600.68395,96.9833838 C2587.68625,98.8659285 2574.24757,100.811358 2560.3049,101.54002 C2509.12611,104.216108 2466.67712,95.9363057 2421.74818,87.1703952 C2405.55356,84.012192 2388.80796,80.748183 2371.75236,78.079082 C2342.56305,73.5124639 2299.85406,69.0157176 2262.18496,73.5304309 C2250.38324,74.9448349 2239.3345,77.0938903 2227.63577,79.3697131 C2214.15709,81.990902 2200.21742,84.7009279 2185.13778,86.1552585 C2154.5375,89.1038465 2122.97925,90.2018311 2092.45997,91.2648799 C2063.34019,92.2773412 2032.12977,92.3974485 2003.06707,95.0513846 C2003.05407,95.0525714 1999.3683,95.0543527 1992.00977,95.0567285 L1992.00977,93.0584532 C1999.36507,93.05637 2003.04842,93.0548079 2003.0598,93.0537669 C2032.48395,90.3623281 2062.69467,89.4386382 2091.99198,88.4171069 C2122.31127,87.3620435 2153.66352,86.2730423 2183.86981,83.3613865 C2198.37147,81.9619552 2212.02914,79.3068286 2225.23883,76.7375444 C2226.4048,76.5109603 2227.57577,76.283378 2228.75075,76.0557957 C2217.899,77.3843572 2206.70127,78.5621953 2194.96955,79.3786966 C2162.9913,81.6086037 2130.26508,82.0118636 2098.62183,82.4031454 C2067.44467,82.7861702 2034.39472,81.9125754 2003.07521,84.0598115 C2003.06041,84.0608266 1999.37192,84.0623507 1992.00977,84.0643839 L1992.00977,82.0658036 C1999.37194,82.063771 2003.06043,82.0622472 2003.07525,82.061232 C2034.7592,79.8898407 2067.10256,79.9204297 2098.45983,79.5324145 C2129.92209,79.1461235 2162.45632,78.7438619 2194.05757,76.5419035 C2215.14707,75.0696058 2234.65861,72.3875287 2253.53616,69.7922922 C2294.41219,64.1746033 2333.02428,58.8663464 2381.31314,66.3715708 C2399.6247,69.2193438 2417.10629,73.031347 2434.01389,76.7215737 C2471.757,84.9524662 2507.39215,92.7321868 2550.99112,90.3745142 C2565.58478,89.5869597 2579.64345,87.0556059 2593.24012,84.6100946 C2608.21277,81.9170376 2623.6924,79.1331473 2640.12801,78.6011239 C2666.43539,77.7417013 2688.67087,83.2545826 2709.17638,88.970092 C2712.4643,89.8864101 2715.68423,90.7887539 2718.85715,91.6781215 C2756.47726,102.235743 2786.19556,110.574438 2831.74448,112.859244 C2866.15767,114.585076 2899.69187,118.161512 2932.12211,121.618167 C2997.72055,128.615324 3059.68909,135.219203 3128.31746,127.775865 C3147.12202,125.738605 3165.88857,122.70617 3184.03115,119.770559 C3207.1006,116.040405 3230.94404,112.186479 3255.39946,110.268 C3262.2073,109.735977 3268.70214,109.313752 3274.97699,108.903505 C3297.57346,107.428213 3317.086,106.156547 3338.94048,100.612722 C3353.26814,96.9773948 3365.59085,93.3021406 3377.51057,89.7536538 C3422.15483,76.4516596 3454.45019,65.6670602 3520.96238,81.4568822 C3526.98113,82.185407 3545.06171,85.0420603 3575.14153,85.1492666 C3602.0303,85.2450997 3663.98312,84.2157548 3761,82.061232 L3761,84.0643839 C3663.94754,86.2678718 3601.99472,87.3032089 3575.14153,87.1703952 C3544.48991,87.0187948 3526.62257,86.0953983 3520.95951,84.541221 C3457.6088,69.503218 3425.35458,78.9065042 3380.83549,92.1672237 C3369.38876,95.5809579 3356.41407,99.4448659 3341.89841,103.128105 C3319.05695,108.925465 3299.02642,110.232066 3275.82997,111.742294 C3269.59812,112.149547 3263.15127,112.568777 3256.42443,113.099803 C3232.486,114.976358 3208.88456,118.78936 3186.0561,122.47759 C3167.75753,125.435162 3148.83698,128.496542 3129.71743,130.566743 C3107.73895,132.947373 3086.47845,133.926576 3065.60895,133.926576 C3020.00203,133.926576 2976.24106,129.261139 2930.73214,124.409045 C2898.4729,120.970357 2865.12369,117.411888 2831.0645,115.706019 C2784.15761,113.352339 2753.92632,104.866914 2715.65723,94.1266273 C2712.4903,93.2412524 2709.27438,92.3359141 2705.99346,91.4215923 C2685.51894,85.7160646 2665.08642,80.6573497 2640.545,81.4568822 C2625.04037,81.960957 2610.67071,84.5442155 2595.45607,87.28219 C2581.4974,89.7935805 2567.06974,92.3908133 2551.69111,93.2222872 C2506.38218,95.6677985 2468.24308,87.3560545 2431.38395,79.3128176 C2414.63735,75.6585249 2397.31476,71.8814576 2379.34518,69.0885838 C2343.01604,63.441948 2312.03678,65.3813882 2281.15751,69.1205252 C2314.47672,67.6632001 2348.8859,71.4881794 2373.71532,75.3730489 Z M2790.33146,79.0540849 C2736.80273,77.6546535 2714.29326,62.8108988 2685.78393,44.0183918 C2651.77074,21.59455 2636.5021,26.2639794 2599.62297,37.551262 C2592.97513,39.5855282 2585.44431,41.891296 2577.1235,44.233996 C2527.30768,58.2682367 2504.53522,50.1321701 2475.7059,39.8380646 C2464.84716,35.9591842 2452.54645,31.5672454 2437.52681,28.0656725 C2406.12655,20.7481036 2381.32814,25.9824961 2352.61882,32.0443697 C2347.17795,33.1932609 2341.54908,34.3820789 2335.77621,35.5010251 C2301.39703,42.1747757 2264.31791,42.8944547 2235.83858,42.7577057 C2194.20956,42.5730447 2152.36055,40.0486781 2111.88151,37.6071594 C2076.25114,35.4608702 2039.4941,31.687859 2003.04781,31.0799168 C2003.0391,31.0797714 1999.35975,31.0795537 1992.00977,31.0792637 L1992.00977,29.0868603 C1999.36221,29.0871903 2003.04341,29.087438 2003.05336,29.0876034 C2039.78489,29.6980997 2076.90688,32.5982317 2112.68149,34.7563919 C2152.98054,37.1869307 2194.63955,39.6983211 2235.89858,39.8809858 C2263.77992,40.0147403 2300.05706,39.3190173 2333.40627,32.8439022 C2339.09714,31.7399285 2344.68,30.560094 2350.07488,29.4221826 C2378.97119,23.3213805 2406.26355,17.5589572 2440.29274,25.4894011 C2455.83937,29.1147469 2468.39208,33.5965208 2479.46182,37.5472693 C2507.48115,47.5489116 2527.73067,54.7846307 2573.94958,41.7645287 C2582.17039,39.4497773 2589.65121,37.1619765 2596.25205,35.1406865 C2633.09018,23.8693746 2653.3807,17.6567776 2690.70982,42.271598 C2718.37816,60.5191053 2740.13565,74.8567889 2790.68445,76.1803595 C2877.2824,78.4452025 2966.80028,76.6065772 3053.35824,74.8268439 C3076.58769,74.3497196 3100.60712,73.8556265 3124.04656,73.4523667 C3141.73415,73.1519182 3159.42573,72.8115429 3177.10531,72.4691713 C3209.18455,71.8533017 3242.35377,71.2104816 3275.00299,70.8201979 C3316.18202,70.3241085 3341.05143,70.02366 3369.54076,54.4921675 C3377.27757,50.2709155 3383.41743,45.1014039 3389.35429,40.0985864 C3397.00611,33.6544145 3404.91592,26.9826603 3416.55364,21.9518941 C3442.25723,10.8469904 3477.12123,12.9791089 3521.02266,28.8315166 C3529.69978,31.2443128 3552.07873,36.9297119 3587.91192,37.0758437 C3614.88093,37.1858264 3672.57695,34.5230796 3761,29.0876034 L3761,31.0989231 C3672.64879,36.5972471 3614.95276,39.2572115 3587.91192,39.0788166 C3552.63249,38.8460696 3530.30417,34.3965751 3520.95817,31.0844977 C3477.24697,16.4237745 3443.84476,14.0832816 3420.75154,24.0630192 C3409.8348,28.7813588 3402.16698,35.2405033 3394.74216,41.4880362 C3388.6593,46.6156246 3382.36445,51.9188907 3374.21965,56.3607378 C3343.95036,72.8634476 3316.58401,73.1948394 3275.16199,73.6939233 C3242.55876,74.0862033 3209.41354,74.7260289 3177.3643,75.3428967 C3159.66872,75.6832719 3141.97014,76.022649 3124.26556,76.3260921 C3100.84311,76.7293519 3076.83668,77.2224468 3053.62723,77.6985729 C2995.7066,78.8893872 2936.46,80.107152 2877.6014,80.107152 C2848.34009,80.1101466 2819.19078,79.8106962 2790.33146,79.0540849 Z M2839.87429,97.8580435 C2828.52456,97.4418075 2817.17183,97.0245733 2805.81509,96.6203154 C2751.72637,94.6988422 2727.41695,83.5043892 2692.23778,65.3976236 C2690.78982,64.6519922 2689.32885,63.884401 2687.84788,63.1108209 C2675.16818,56.4450557 2662.0535,49.5537046 2643.14794,48.9188698 C2626.36834,48.3549049 2610.75971,53.2888488 2595.65907,58.0600914 C2587.14727,60.7491557 2579.10646,63.2914893 2570.75966,64.9584297 C2523.57077,74.3971053 2495.41144,66.4616705 2462.80221,57.2745332 C2452.90244,54.4856521 2442.66269,51.6039414 2431.22696,48.9957287 C2390.55392,39.7277398 2350.02888,45.5590366 2307.10989,51.7337032 C2281.6555,55.3959813 2255.33412,59.1840284 2228.78175,59.6002644 C2187.83672,60.2430846 2146.44369,58.5661625 2106.41464,56.9451378 C2083.85706,56.0310546 2049.40048,54.7424833 2003.04488,53.0794239 C2003.03682,53.0791345 1999.35845,53.0787005 1992.00977,53.0781217 L1992.00977,51.0815851 C1999.35359,51.0815851 2003.02831,51.0815852 2003.03395,51.0815853 C2037.93773,51.0823828 2072.97666,52.7292099 2106.94363,54.1053502 C2146.78769,55.7183895 2187.99171,57.386328 2228.56075,56.7514933 C2254.27914,56.3502298 2280.19653,52.6210745 2305.25894,49.0136957 C2347.44794,42.9468313 2391.06691,36.6683552 2433.94589,46.4444116 C2445.63262,49.1055272 2455.98537,52.0231719 2466.00513,54.8439944 C2498.43337,63.9782288 2524.04376,71.1919882 2568.29271,62.3462243 C2576.09553,60.7850897 2583.89734,58.3236077 2592.15915,55.709406 C2608.13277,50.6606728 2624.64038,45.44824 2643.57793,46.0780839 C2665.00343,46.797763 2679.59708,54.4636924 2692.46678,61.2302726 C2693.92974,62.0008582 2695.37771,62.760464 2696.81067,63.4981101 C2730.96986,81.077843 2754.53931,91.9468933 2806.26808,93.7845204 C2817.63481,94.1887784 2828.99355,94.6060125 2840.34728,95.0202522 C2939.42493,98.6535834 3041.89251,102.407693 3142.96012,97.1583278 C3161.85167,96.1761306 3181.03922,94.8904904 3199.58778,93.6477714 C3227.43812,91.7811974 3256.23244,89.8497425 3284.79576,88.8964922 C3318.14497,87.7825368 3336.96453,85.6504502 3360.29397,75.9482582 C3369.73475,72.0264566 3377.51757,67.0745456 3385.04339,62.2853361 C3393.59919,56.8433247 3402.44898,51.2156541 3413.94971,46.8846036 C3453.0289,32.1683428 3482.98692,39.0591595 3520.97236,51.0724714 C3530.46983,52.4869752 3547.24596,54.7319999 3571.9831,55.0903981 C3599.63209,55.4909839 3662.63772,54.154713 3761,51.0815853 L3761,53.0781217 C3662.53485,56.3719368 3599.52922,57.6985993 3571.9831,57.0581091 C3547.18124,56.4814272 3530.12664,55.3731769 3520.97019,53.0683224 C3484.08503,41.4022944 3453.68873,35.5971059 3417.85061,49.0905547 C3406.96887,53.1880339 3398.36107,58.6639829 3390.04027,63.9572673 C3382.32045,68.866257 3374.34464,73.9389463 3364.42488,78.0613797 C3339.74146,88.3225456 3320.04593,90.5724161 3285.23675,91.7332853 C3256.89542,92.6795485 3228.2081,94.6010217 3200.47876,96.4626048 C3181.8762,97.7093165 3162.63965,98.9989494 3143.6521,99.9851393 C3107.46296,101.865688 3071.11382,102.597345 3034.84467,102.597345 C2969.24123,102.598343 2903.86277,100.201742 2839.87429,97.8580435 Z M2905.00275,88.761902 C2892.15405,88.5622684 2879.05636,88.607186 2865.20069,88.6560962 C2838.43932,88.7489258 2810.77198,88.8477445 2785.36258,87.0270862 C2739.69166,83.7540937 2717.99417,71.1721874 2692.86477,56.6049251 C2689.86684,54.8641203 2686.80491,53.0943686 2683.64498,51.29567 C2650.70376,32.6019817 2632.54619,37.8503485 2602.44691,46.5433927 C2591.02118,49.8433358 2578.07148,53.590458 2562.36785,56.5081028 C2519.69486,64.4535192 2496.44741,56.8365 2469.53005,48.0206812 C2459.23229,44.6458755 2448.58255,41.1582769 2435.98984,38.2615937 C2401.05867,30.2263421 2374.6413,35.1952219 2341.19209,41.4816833 C2338.47215,41.9917471 2335.71322,42.5127907 2332.90628,43.031838 C2305.04994,48.1893716 2273.67768,50.6518517 2234.17862,50.7806154 C2192.44561,50.9013937 2150.4506,48.7443529 2109.81156,46.6432095 C2074.83681,44.8331238 2038.7613,41.457793 2003.04357,41.0786519 C2003.0358,41.0785694 1999.35786,41.0784459 1992.00977,41.0782815 L1992.00977,39.0775354 C1999.35928,39.0777162 2003.03827,39.077852 2003.04675,39.0779426 C2039.02845,39.4626363 2075.38879,42.0143485 2110.49555,43.8293742 C2150.95459,45.9215341 2192.8036,48.0725859 2234.13262,47.9488131 C2272.8337,47.8230439 2303.49098,45.4254446 2330.60034,40.4076546 C2333.39727,39.8906037 2336.14721,39.3725545 2338.85514,38.8624907 C2372.37235,32.5610568 2401.31366,27.1210418 2438.75278,35.7302399 C2451.77247,38.7247436 2462.62221,42.2792194 2473.11197,45.7119188 C2499.59334,54.3840015 2520.50084,61.2364241 2560.03991,53.8789286 C2575.23355,51.0501207 2587.93825,47.3808556 2599.14898,44.1437971 C2629.86026,35.2720808 2652.05173,28.8618466 2688.43687,49.5129422 C2691.6108,51.3166316 2694.68172,53.0963649 2697.69465,54.8421606 C2723.02105,69.5252103 2743.02358,81.1249194 2786.31256,84.2262271 C2811.23797,86.008955 2838.64132,85.9151272 2865.15069,85.8222976 C2878.46237,85.7733873 2892.23005,85.7264734 2905.20974,85.9281034 C2988.73777,87.2287161 3052.77625,87.0650166 3112.84483,85.3870964 C3140.20318,84.6244961 3167.98352,83.4905774 3194.84289,82.3925927 C3218.06234,81.4463295 3242.06177,80.4631341 3265.73421,79.7254881 C3269.59512,79.6047097 3273.33903,79.4999021 3276.98395,79.3990871 C3312.7111,78.4009193 3338.52249,77.6772475 3365.93184,64.6102316 C3374.46764,60.5397029 3381.34348,55.4979569 3387.98132,50.6258994 C3396.01113,44.7307198 3404.31393,38.637903 3415.80966,33.9734644 C3455.80922,17.7521603 3487.4711,27.602378 3520.95221,39.0611833 C3530.83992,40.7503374 3554.08702,45.9708412 3590.00834,46.075251 C3617.0321,46.1537989 3674.02932,43.8213628 3761,39.0779426 L3761,41.0786519 C3673.95713,45.7966284 3616.93647,48.1318933 3589.93803,48.0844466 C3553.80189,48.0209414 3530.66156,43.647211 3520.95221,41.4816833 C3483.02056,29.6593342 3453.69076,22.385239 3419.89756,36.093573 C3409.06882,40.4865099 3401.00901,46.402651 3393.2082,52.1241494 C3386.39936,57.1249706 3379.35252,62.2944821 3370.36974,66.5776205 C3341.29042,80.4401763 3314.47206,81.1898004 3277.35194,82.227895 C3273.72102,82.3297081 3269.98911,82.4355139 3266.1402,82.5542959 C3242.53976,83.2919419 3218.56433,84.2711446 3195.38188,85.218406 C3168.47651,86.3163907 3140.65617,87.4533039 3113.20382,88.2228913 C3079.48562,89.1621673 3044.52545,89.6323044 3005.60637,89.6323044 C2974.98609,89.6273136 2941.89287,89.3368467 2905.00275,88.761902 Z M2891.59206,107.76076 C2866.64365,106.418224 2840.84726,105.030771 2815.21387,103.950753 C2762.03513,101.710864 2735.41576,91.6942494 2697.90665,75.4650375 C2696.66868,74.9300196 2695.42771,74.3890126 2694.17674,73.8420165 C2679.67108,67.5016541 2664.66943,60.9486818 2644.61091,60.3637555 C2627.70831,59.8716587 2612.00468,64.088918 2596.83104,68.1664339 C2588.18424,70.4871743 2579.24245,72.8897644 2570.15367,74.3940034 C2521.69482,82.4192733 2490.31556,74.5227671 2453.98642,65.3805473 C2443.34767,62.703461 2432.34093,59.9355414 2420.40221,57.4580887 C2375.98326,48.2529844 2335.59422,53.7538876 2292.83523,59.5811918 C2268.7858,62.8561807 2243.92139,66.2429644 2217.68701,66.9985775 C2179.25692,68.1035493 2140.27884,67.1283393 2102.57973,66.1830743 C2069.99031,65.3660463 2036.13907,63.5614141 2003.03811,64.0715054 C2003.03155,64.0716065 1999.35543,64.0717584 1992.00977,64.0719609 L1992.00977,62.0776053 C1999.35337,62.0774339 2003.02793,62.0773054 2003.03345,62.0772199 C2036.44567,61.5596819 2070.19135,62.5352424 2102.92172,63.3542665 C2140.44084,64.2945406 2179.23992,65.2627635 2217.30902,64.1707678 C2242.83941,63.4381126 2267.36783,60.0952483 2291.08727,56.8641788 C2334.97623,50.8851531 2376.43525,45.2375192 2422.94415,54.8778247 C2435.10286,57.3981986 2446.2136,60.1940669 2456.95335,62.8931129 C2491.97252,71.7049391 2522.2218,79.313973 2568.06072,71.7239043 C2576.61452,70.307504 2584.92032,68.0765988 2593.71311,65.7149335 C2609.68773,61.4248079 2626.16934,56.9949388 2645.0019,57.5339495 C2667.29937,58.1817604 2683.83998,65.4064997 2698.43063,71.7847925 C2699.67161,72.3277959 2700.90758,72.8678047 2702.13755,73.3978318 C2738.55469,89.1559084 2763.52609,98.9249776 2815.77486,101.123941 C2841.49125,102.207952 2867.33364,103.596403 2892.31305,104.938939 C2976.94104,109.492581 3056.86915,113.792688 3141.26716,107.805677 C3159.58972,106.506063 3178.16228,104.757273 3196.12286,103.065378 C3222.80723,100.551991 3250.40157,97.9537602 3277.98092,96.7449789 C3308.95719,95.3874706 3329.24971,94.0808688 3354.9691,84.7569825 C3368.01879,80.0236703 3379.29653,75.1196715 3389.24829,70.7936118 C3426.4317,54.6287686 3453.33487,41.6110628 3520.97037,61.0756461 C3525.5634,61.5212895 3538.88577,63.9417261 3557.00112,64.0719609 C3624.9906,64.560751 3760.9918,62.0591687 3761,62.06153 L3761,64.0715054 C3760.99184,64.0691565 3625.40114,67.0129296 3557.00112,66.0154828 C3539.33435,65.7578561 3526.18465,64.9050189 3520.97037,64.0626408 C3457.39424,45.7685488 3431.2762,56.4286351 3393.50319,72.851834 C3383.45343,77.221813 3372.0647,82.1707295 3358.80101,86.9759097 C3332.26364,96.6012427 3310.79215,98.1523957 3278.57291,99.5658014 C3251.32355,100.758612 3223.8992,103.343867 3197.37483,105.841283 C3179.34526,107.540165 3160.6877,109.29694 3142.21613,110.606536 C3112.21684,112.735629 3082.82754,113.578082 3053.61823,113.578082 C2999.8425,113.584071 2946.71076,110.72432 2891.59206,107.76076 Z M2909.99163,113.59872 C2879.96234,111.272989 2848.90307,110.86374 2817.89381,109.359501 C2771.6849,107.117616 2743.19558,97.2197829 2710.19636,85.7588192 C2706.51544,84.4801661 2702.76053,83.1755607 2698.89862,81.8499937 C2659.07357,68.2050386 2635.59012,72.1827376 2603.07089,77.6846391 C2588.84823,80.0932182 2572.72461,82.8232074 2553.07507,84.4063017 C2510.08309,87.8689461 2477.93685,80.193035 2443.90766,72.065952 C2427.85804,68.2339854 2411.26243,64.2702607 2393.33985,61.555244 C2350.73086,55.1000922 2313.94173,60.1857577 2275.00265,65.567879 C2253.66116,68.5204596 2231.59368,71.5768497 2208.01324,72.7217483 C2171.3741,74.5084688 2134.02799,74.265914 2097.90584,74.0283501 C2066.88457,73.8287679 2034.42457,71.9759386 2003.03285,73.061149 C2003.02746,73.0613355 1999.3531,73.0616153 1992.00977,73.0619885 L1992.00977,71.0735047 C1999.35565,71.0730438 2003.03193,71.0726982 2003.0386,71.072468 C2034.70214,69.9791558 2066.83742,70.993983 2097.99184,71.1945514 C2133.92999,71.4291209 2171.09011,71.6726738 2207.35925,69.9029221 C2230.36871,68.7829778 2252.15019,65.7705071 2273.2187,62.8558568 C2313.12175,57.3379847 2350.80686,52.1235556 2395.26581,58.8631852 C2413.66037,61.6480736 2430.48497,65.6656994 2446.74459,69.5505689 C2479.81381,77.4490714 2511.05307,84.9093783 2551.9921,81.6084371 C2571.09165,80.068264 2586.94027,77.387185 2600.92094,75.0205289 C2633.97016,69.4277942 2660.06954,65.008905 2702.56854,79.5731727 C2706.44045,80.8997379 2710.20536,82.2093341 2713.89927,83.4909817 C2747.49047,95.1585662 2774.01785,104.37465 2818.51679,106.528697 C2849.72605,108.042917 2880.87532,110.457486 2910.99461,112.789206 C2985.16285,118.532664 3055.21119,123.958705 3129.91943,117.612353 C3149.77496,115.924451 3169.75248,113.43502 3189.06803,111.023447 C3213.54045,107.972048 3238.85285,104.815841 3264.39624,103.222765 C3268.25915,102.982206 3271.99306,102.765604 3275.62398,102.552994 C3301.77336,101.023801 3322.41987,99.8170158 3346.32231,92.660152 C3360.77096,88.332096 3373.35167,83.7754596 3384.4514,79.7548393 C3424.78165,65.1568246 3453.97002,54.3542932 3520.95732,71.7878172 C3530.03196,72.9871202 3555.60664,76.0197431 3586.89819,76.0969664 C3658.88809,76.2746276 3760.98998,71.0708956 3761,71.0735047 L3761,73.0619885 C3760.99145,73.0597636 3661.24336,78.5890901 3586.89819,78.0999393 C3559.05621,77.9167541 3535.36478,76.1947956 3520.95732,74.0283501 C3457.56315,57.5318959 3428.14098,67.5439314 3388.27931,81.9797555 C3377.07758,86.037308 3364.37888,90.6338712 3349.69923,95.0357916 C3324.60982,102.548003 3303.34032,103.79172 3276.41096,105.365831 C3272.79605,105.578441 3269.07613,105.793047 3265.23622,106.033605 C3240.08682,107.599731 3214.97741,110.731982 3190.68799,113.760423 C3171.24945,116.183975 3151.15492,118.692371 3131.0494,120.400236 C3107.16196,122.429511 3083.46652,123.251004 3059.98108,123.251004 C3008.96929,123.260985 2958.91047,117.387765 2909.99163,113.59872 Z M2956.03554,140.330153 C2929.28117,135.378242 2901.61683,130.258639 2872.49752,127.74625 C2866.91965,127.265133 2861.43778,126.799987 2856.04191,126.341828 C2811.43396,122.555777 2772.91387,119.284781 2728.67492,111.626837 C2701.72156,106.962398 2677.27614,103.13143 2650.91676,103.459827 C2635.01014,103.656466 2619.26151,105.448177 2604.02887,107.177004 C2589.71221,108.802022 2574.90956,110.482936 2559.65992,110.915143 C2506.95616,112.412395 2459.52229,103.937949 2413.62337,95.7449874 C2396.40778,92.6736248 2378.6042,89.4964563 2360.68263,86.8632894 C2312.31377,79.7603267 2275.17465,77.8198883 2247.16531,80.9431556 C2235.24059,82.2717171 2223.72387,84.6942706 2211.53115,87.2605603 C2199.55344,89.779936 2187.16873,92.3851542 2174.30204,93.8724244 C2145.90071,97.1474133 2116.4964,98.8562767 2088.06408,100.509243 C2060.44002,102.117516 2030.50309,101.956887 2003.04456,105.050578 C2003.03576,105.05157 1999.35628,105.053059 1992.00612,105.055045 L1992.00612,103.052201 C1999.35782,103.050043 2003.03845,103.048425 2003.04803,103.047347 C2030.8389,99.9182917 2059.49712,99.2796628 2087.29209,97.6634661 C2115.55143,96.0204817 2144.77073,94.3225981 2172.82007,91.0885341 C2185.13878,89.6681412 2197.26649,87.1148277 2208.98921,84.6473567 C2220.90793,82.1399589 2233.22864,79.5447224 2245.72735,78.1532764 C2274.85666,74.9082325 2313.07575,76.8636434 2362.54458,84.1273112 C2380.64415,86.7864305 2398.53473,89.9795696 2415.83332,93.0679011 C2463.2022,101.524379 2507.96114,109.507726 2559.27993,108.050401 C2573.97758,107.634165 2588.50924,105.984194 2602.5589,104.389121 C2618.10753,102.624361 2634.18215,100.798711 2650.74776,100.589096 C2678.16411,100.225763 2703.25652,104.165532 2730.82587,108.937772 C2774.55583,116.503885 2812.83393,119.752922 2857.15288,123.520007 C2862.55575,123.978166 2868.04062,124.444311 2873.62449,124.924429 C2903.33979,127.485728 2931.29213,132.662227 2958.32249,137.664046 C3009.95526,147.2235 3058.72011,156.250931 3116.97873,147.796449 C3136.15828,145.013557 3154.33785,140.517808 3171.91943,136.167793 C3190.70999,131.518327 3210.13853,126.714145 3231.01803,123.914284 C3245.1177,122.028744 3259.43336,121.238195 3273.27703,120.473599 C3288.79867,119.618169 3304.84129,118.732794 3320.38592,116.282292 C3335.35456,113.922623 3348.92624,111.444172 3362.04993,109.045575 C3414.16122,99.5294099 3455.3509,91.3258156 3520.97291,103.459827 C3520.97318,103.459877 3554.6708,105.931766 3554.96719,105.931818 C3559.36274,105.932591 3628.04034,104.971101 3761,103.047347 L3761,105.050578 C3649.59748,107.485406 3580.91988,108.485347 3554.96719,108.050401 C3537.9235,107.764763 3526.61684,106.817514 3520.97291,105.931818 C3457.61832,94.2134029 3415.14795,102.427952 3364.31588,111.714676 C3351.12319,114.124253 3337.48151,116.616678 3322.37287,118.998307 C3306.22325,121.547627 3289.84764,122.447975 3274.01402,123.320374 C3260.41434,124.070996 3246.35567,124.848569 3232.74499,126.670225 C3212.48347,129.384244 3193.34592,134.121548 3174.83136,138.698148 C3157.00078,143.112047 3138.55222,147.671678 3118.83569,150.534423 C3101.79609,153.005887 3085.59647,154.047974 3069.94084,154.047974 C3030.13279,154.04997 2993.83465,147.330304 2956.03554,140.330153 Z M2964.25934,147.218465 C2936.658,140.7703 2908.12067,134.102539 2877.81139,131.855663 L2866.18367,130.998237 C2819.45577,127.549567 2775.31582,124.295539 2728.26693,118.542099 C2686.66591,113.459429 2653.5787,115.132358 2615.2696,117.074793 C2600.98494,117.799463 2586.21029,118.545094 2570.25067,118.966321 C2512.33104,120.485532 2458.8233,111.919255 2407.09453,103.629471 C2391.3999,101.116084 2375.17428,98.5178533 2359.00567,96.2260598 C2321.35756,90.8878579 2278.19758,85.4328703 2242.40842,88.2866323 C2228.67875,89.3796262 2214.63508,92.2743131 2201.0494,95.0731759 C2190.48165,97.2521764 2179.55091,99.5060395 2168.70017,100.932421 C2141.14682,104.557767 2112.5415,106.783682 2084.87215,108.937728 C2058.35578,110.998156 2029.39421,111.676433 2003.07706,115.032695 C2003.06185,115.034635 1999.37275,115.037549 1992.00977,115.041434 L1992.00977,113.069189 C1999.36773,113.065943 2003.05306,113.063509 2003.06577,113.061888 C2029.68633,109.664303 2057.1819,108.175638 2083.85418,106.100935 C2111.35452,103.960863 2139.78985,101.751917 2167.01221,98.1684945 C2177.44196,96.7960137 2188.17171,94.5840736 2198.54046,92.445998 C2212.46513,89.5772634 2226.86579,86.6047194 2241.34945,85.448841 C2278.46857,82.4872769 2322.45753,88.0370904 2360.78662,93.4741109 C2377.06124,95.7808769 2393.34185,98.3880914 2409.08548,100.910462 C2462.61421,109.483726 2513.15302,117.589847 2569.89168,116.093594 C2585.6923,115.680352 2600.38295,114.936717 2614.58762,114.21604 C2651.88674,112.326508 2687.1159,110.541784 2729.82489,115.7632 C2776.57779,121.477711 2820.57274,124.724751 2867.15164,128.159447 L2878.77537,129.016873 C2910.02463,131.331625 2939.00394,138.101199 2967.02328,144.649181 C3012.8322,155.352535 3056.09117,165.462978 3108.39993,157.675272 C3129.38044,154.552004 3148.112,148.917347 3166.22457,143.463357 C3182.14519,138.675146 3198.6038,133.722237 3216.70337,130.407321 C3233.89497,127.2591 3252.42953,126.473542 3270.3571,125.711939 C3283.37679,125.159953 3296.82248,124.587004 3309.53618,123.114707 C3325.4168,121.272089 3340.18045,119.251797 3354.45811,117.297384 C3408.93698,109.844414 3456.01569,103.041386 3520.96595,113.382204 C3526.77026,114.457085 3540.29589,116.750418 3558.3091,117.074793 C3627.46566,118.320138 3760.99068,113.060404 3761,113.061888 L3761,115.041434 C3760.99268,115.040268 3628.83204,121.233075 3558.3091,118.966321 C3541.46895,118.425043 3528.13732,117.480601 3520.96595,115.7632 C3457.87142,105.718123 3411.87475,112.437402 3356.20407,120.057318 C3341.85841,122.020715 3327.03476,124.047994 3311.02514,125.905584 C3297.84545,127.432781 3284.15378,128.012716 3270.91609,128.574685 C3252.61352,129.352258 3235.32693,130.085911 3218.96132,133.083409 C3201.42773,136.293517 3185.23112,141.169567 3169.57249,145.883914 C3151.11592,151.437721 3132.03438,157.178184 3110.27389,160.419235 C3096.88221,162.412577 3083.97651,163.270003 3071.46981,163.270003 C3032.92472,163.269005 2998.15854,155.141922 2964.25934,147.218465 Z M2972.18916,154.90845 C2946.12977,147.584893 2919.18041,140.0078 2890.52109,137.673085 C2865.94667,135.666768 2840.41228,134.327227 2815.72286,133.032603 C2789.21849,131.638162 2761.81413,130.197806 2735.11477,127.92897 C2696.21869,124.62204 2661.57651,125.840803 2624.90737,127.131434 C2607.51879,127.741315 2589.53821,128.374153 2570.73866,128.516891 C2512.78303,128.968063 2457.82133,121.241245 2404.66259,113.785929 C2388.46197,111.512103 2371.70836,109.162416 2355.10276,107.074249 L2350.75086,106.525256 C2316.00368,102.144297 2272.75371,96.6923042 2237.30354,99.0040611 C2223.17388,99.9243719 2208.55922,102.76416 2194.43056,105.507125 C2184.62779,107.414624 2174.48903,109.383011 2164.59427,110.694603 C2137.7429,114.248081 2109.93156,116.703574 2083.03619,119.078216 C2057.14807,121.364024 2028.79927,122.70119 2003.04183,126.031887 C2003.03436,126.032853 1999.35688,126.034302 1992.0094,126.036234 L1992.0094,124.056505 C1999.35804,124.054422 2003.03638,124.05286 2003.04443,124.051819 C2029.05249,120.686727 2055.86691,118.576069 2081.88122,116.277357 C2108.64159,113.913695 2136.30993,111.47018 2162.89931,107.951638 C2172.43708,106.689954 2182.40384,104.753508 2192.03862,102.878949 C2206.53127,100.064115 2221.51692,97.1534578 2236.44757,96.1802441 C2273.1647,93.7876357 2317.08566,99.3254712 2352.38482,103.776302 L2356.73672,104.324296 C2373.42832,106.422445 2390.22393,108.777123 2406.46954,111.057937 C2459.1663,118.450368 2513.69701,126.110308 2570.64566,125.66812 C2589.25922,125.528377 2607.14579,124.897534 2624.44239,124.288652 C2661.52151,122.985045 2696.55068,121.753306 2736.22974,125.124119 C2762.72611,127.377982 2790.02447,128.813347 2816.42784,130.198804 C2841.21226,131.502411 2866.84665,132.84894 2891.60606,134.865239 C2921.41536,137.29478 2948.86471,145.011616 2975.41408,152.474917 C3018.09907,164.472895 3058.42212,175.813081 3107.95095,167.157967 C3127.77948,163.692328 3144.69608,157.562579 3161.05969,151.63446 C3175.69834,146.330196 3190.83498,140.846261 3208.19857,137.172005 C3226.76413,133.242218 3247.75664,132.68025 3268.05716,132.141239 C3279.38089,131.836798 3291.09661,131.524371 3302.00235,130.614042 C3317.26299,129.343374 3331.91265,127.918989 3346.07131,126.541517 C3405.25175,120.785877 3456.40859,115.547876 3520.97445,124.0483 C3523.90769,124.502087 3532.92432,125.850209 3548.07501,126.036234 C3572.18385,126.332251 3643.15884,125.670779 3761,124.051819 L3761,126.036234 C3643.23991,127.712378 3572.26492,128.34329 3548.07501,127.92897 C3533.34742,127.676719 3524.25827,126.628457 3520.96965,126.032083 C3457.87529,117.725466 3405.71718,123.651768 3347.33828,129.328402 C3333.12962,130.709866 3318.43697,132.140241 3303.08933,133.417896 C3291.8136,134.355175 3279.90988,134.673591 3268.40115,134.980028 C3248.67562,135.508059 3228.2721,136.055055 3210.75851,139.760254 C3194.05991,143.293769 3179.21426,148.671897 3164.8566,153.874348 C3148.13099,159.932229 3130.8374,166.199726 3110.12189,169.820081 C3097.3332,172.054979 3085.07249,173.012222 3073.23077,173.012222 C3036.59963,173.015216 3003.98841,163.848042 2972.18916,154.90845 Z M2977.82702,163.114449 C2953.3076,155.059234 2927.9522,146.725531 2901.61883,144.183197 C2886.93017,142.7648 2870.17257,142.790753 2853.96795,142.807722 C2842.13523,142.825689 2829.90852,142.840661 2818.57279,142.291669 C2803.86614,141.583968 2789.01849,140.610754 2774.65383,139.667485 C2763.67909,138.949803 2752.32536,138.206168 2741.14862,137.586305 C2705.54847,135.61692 2670.72029,136.49431 2637.03109,137.337761 C2615.92159,137.868787 2594.1041,138.417779 2571.93263,138.287019 C2514.98997,137.952633 2459.72528,131.401657 2406.27655,125.063291 C2389.90893,123.120856 2372.98733,121.115537 2356.26773,119.317836 C2352.56882,118.920566 2348.78891,118.505328 2344.943,118.083103 C2311.0828,114.370916 2272.70471,110.162641 2239.53549,111.758711 C2224.67884,112.474397 2209.21621,115.07163 2194.24656,117.583021 C2184.80379,119.168111 2175.03702,120.810097 2165.59424,121.940024 C2138.35489,125.20004 2110.29555,127.639562 2083.16619,129.995238 C2057.25508,132.249421 2029.01622,133.985714 2003.05675,137.021939 C2003.04387,137.023444 1999.35829,137.025704 1992,137.028716 L1992,135.053196 C1999.36134,135.049825 2003.04921,135.047296 2003.06361,135.045611 C2029.20251,131.985669 2056.01431,129.474322 2082.01222,127.212346 C2109.04158,124.861661 2136.99792,122.431122 2164.03028,119.197058 C2173.18706,118.099073 2182.38484,116.556904 2192.11961,114.922903 C2207.43325,112.351623 2223.26888,109.693502 2238.88351,108.942879 C2273.1027,107.295902 2312.03178,111.56307 2346.37096,115.328159 C2350.20787,115.74739 2353.97878,116.162628 2357.6717,116.559899 C2374.4543,118.365584 2391.4079,120.375894 2407.81051,122.320326 C2460.89925,128.613774 2515.79796,135.12682 2571.99663,135.452222 C2593.92311,135.580986 2615.66159,135.03399 2636.6751,134.509952 C2670.62429,133.65552 2705.73346,132.775136 2741.87261,134.77247 C2753.11434,135.395327 2764.50007,136.142955 2775.51281,136.863632 C2789.81647,137.80191 2804.60212,138.772129 2819.19778,139.472843 C2830.20752,140.003868 2842.26723,139.988895 2853.93196,139.972925 C2870.45856,139.949967 2887.54716,139.930004 2902.8728,141.410287 C2930.47814,144.074397 2956.37153,152.58278 2981.41094,160.808681 C3022.28497,174.241027 3060.88906,186.930735 3107.52796,177.418195 C3126.35251,173.579241 3141.60715,166.953403 3156.3448,160.54816 C3169.83148,154.688914 3183.77615,148.632031 3200.60375,144.567492 C3220.04229,139.873108 3242.78276,139.628557 3264.77223,139.392989 C3275.46198,139.276204 3285.56074,139.167403 3295.32951,138.58647 C3308.4092,137.807899 3321.3589,136.943485 3333.8776,136.112011 C3396.23288,131.958187 3455.17878,128.207962 3520.92764,135.037968 C3532.36308,135.84499 3612.3872,135.847538 3761,135.045611 L3761,137.028716 C3611.42627,138.067218 3531.40186,138.06464 3520.92678,137.020982 C3456.29684,130.30651 3396.53142,134.800999 3334.76658,138.915865 C3322.22388,139.749335 3309.25418,140.615745 3296.12749,141.396312 C3286.03773,141.998207 3275.30499,142.113995 3264.92823,142.22579 C3243.64473,142.453372 3221.63926,142.690936 3203.47969,147.075887 C3187.40007,150.957762 3173.76939,156.879893 3160.5867,162.605384 C3145.46706,169.178319 3129.82643,175.970852 3110.0329,180.006445 C3097.94318,182.472917 3086.32246,183.528979 3075.08472,183.531974 C3039.96555,183.531974 3008.5063,173.193949 2977.82702,163.114449 Z M2986.80981,172.819109 C2966.2993,165.178134 2945.0938,157.273642 2923.22132,153.613361 C2905.77873,150.697712 2885.03222,150.916311 2864.94269,151.128921 C2855.57892,151.229736 2846.73513,151.323564 2838.14733,151.120935 C2820.35975,150.700707 2802.33818,150.009975 2784.90859,149.3422 C2775.41781,148.979865 2765.60705,148.599563 2755.95927,148.273162 C2720.14612,147.058392 2684.38097,147.605388 2649.79179,148.132421 C2628.40129,148.458822 2606.26282,148.800195 2584.21334,148.722338 C2525.97471,148.522704 2468.34608,143.187497 2412.6074,138.022976 C2398.72973,136.739332 2384.37807,135.410771 2370.2584,134.183024 C2365.48951,133.769783 2360.66163,133.337576 2355.78874,132.902375 C2322.78952,129.955783 2288.68033,126.913368 2256.2811,127.450382 C2238.27152,127.748834 2220.02195,129.9468 2202.37037,132.066908 C2193.49058,133.134948 2184.3108,134.238922 2175.29101,135.091357 C2145.61771,137.873251 2115.23243,140.052252 2085.85313,142.158386 C2058.99979,144.081137 2030.12549,145.590756 2003.03691,148.034656 C2003.03017,148.035265 1999.35378,148.036178 1992.00774,148.037395 L1992.00774,146.039821 C1999.35489,146.038504 2003.03212,146.037516 2003.03942,146.036857 C2030.24825,143.582476 2057.99362,141.282216 2084.90515,139.353534 C2114.21446,137.255385 2144.52374,135.081376 2174.06304,132.306469 C2182.91983,131.475993 2192.01762,130.382999 2200.81441,129.324941 C2218.78798,127.16291 2237.37454,124.926015 2256.0631,124.614587 C2289.15232,124.0626 2323.6315,127.142946 2356.98071,130.119483 C2361.8446,130.55169 2366.66248,130.984894 2371.42037,131.397138 C2385.57704,132.626881 2399.9467,133.959435 2413.83937,135.244077 C2469.29806,140.379651 2526.6367,145.689904 2584.27534,145.884547 C2606.23282,145.963402 2628.27429,145.624025 2649.60379,145.297624 C2684.35297,144.768595 2720.29212,144.219603 2756.42126,145.444355 C2766.10103,145.77375 2775.9268,146.151057 2785.43058,146.516387 C2802.81116,147.184161 2820.77974,147.871899 2838.46932,148.287137 C2846.82012,148.484774 2855.55892,148.390946 2864.8057,148.295122 C2885.44521,148.074527 2906.8037,147.849939 2925.33427,150.950249 C2948.18373,154.771235 2969.80321,162.827449 2990.70272,170.618149 C3033.38371,186.525951 3073.69676,201.553368 3123.92957,183.564387 C3133.92633,179.98296 3143.00912,175.29756 3152.63189,170.334669 C3170.10747,161.321213 3188.17405,152.007309 3213.13046,149.025781 C3231.38502,146.843786 3252.77552,146.919647 3273.46903,146.995508 C3286.69472,147.04342 3299.19042,147.086341 3310.77815,146.582266 C3384.16785,143.37058 3450.57554,140.782177 3520.97367,146.034805 C3520.97978,146.035261 3600.98856,146.035945 3761,146.036857 L3761,148.034656 C3600.98773,148.033682 3520.97834,148.032952 3520.97181,148.032465 C3451.35398,142.839142 3384.33759,146.209381 3314.48906,149.269334 C3299.45741,149.92513 3286.21673,149.87622 3273.41903,149.831303 C3253.12451,149.75644 3232.14001,149.682575 3214.68442,151.770743 C3191.53497,154.53467 3174.10038,163.527164 3157.23578,172.221207 C3147.855,177.05733 3138.15623,182.062144 3127.71648,185.800283 C3110.21289,192.069775 3093.75428,194.586156 3078.04965,194.586156 C3045.20743,194.590149 3015.67913,183.577363 2986.80981,172.819109 Z M2990.27773,181.828813 C2970.4352,173.41825 2949.91868,164.720215 2929.44617,160.98008 C2897.66192,155.17773 2851.33802,156.098041 2810.45898,156.907555 C2792.21442,157.26989 2774.98382,157.61326 2759.79818,157.382683 C2728.27193,156.905559 2696.27969,157.219982 2665.34042,157.526419 C2639.49303,157.780952 2612.76566,158.045466 2586.41428,157.846831 C2532.48156,157.437582 2478.19685,154.252428 2425.70809,151.172082 C2412.22241,150.379537 2398.27674,149.562037 2384.55906,148.804428 C2278.85156,142.961153 2171.6141,148.811415 2067.90655,154.473023 C2053.86642,155.237282 2032.24357,156.087681 2003.03801,157.024218 L1992.01076,157.025638 L1992.01076,155.044974 C1999.3599,155.044143 2003.03861,155.043521 2003.04691,155.043106 C2003.05935,155.042483 2046.1353,152.775471 2067.18257,151.628245 C2171.25011,145.946673 2278.85756,140.074452 2385.29504,145.962644 C2399.02972,146.720253 2412.98839,147.538751 2426.48407,148.330298 C2478.81283,151.404655 2532.92155,154.579827 2586.52028,154.983087 C2612.74966,155.184717 2639.42503,154.920203 2665.20842,154.663674 C2696.22769,154.359232 2728.30693,154.039819 2759.99618,154.521934 C2774.95182,154.749516 2792.07542,154.408143 2810.19499,154.0498 C2851.67501,153.225314 2898.7029,152.289032 2931.70212,158.31597 C2953.23961,162.247753 2974.18411,171.130449 2994.43963,179.715691 C3036.09065,197.373281 3075.42571,214.050671 3122.6566,194.41571 C3131.90338,190.569769 3140.21118,185.570944 3149.00497,180.27766 C3165.67758,170.236091 3182.91917,159.859137 3208.54357,156.514277 C3227.89411,153.990908 3251.58255,154.420121 3274.498,154.835358 C3286.32472,155.049965 3297.49746,155.251594 3307.63722,155.044974 L3313.55508,154.923197 C3384.45351,153.452145 3451.47033,152.072023 3520.96619,155.041611 C3520.97397,155.041943 3600.98523,155.042441 3761,155.043106 L3761,157.025638 C3600.98581,157.024998 3520.97497,157.024517 3520.96748,157.024197 C3451.88091,154.069795 3384.51291,156.314882 3313.82607,157.780952 L3307.90821,157.903727 C3297.52346,158.118333 3286.22073,157.914706 3274.25801,157.697106 C3251.82454,157.290851 3228.63109,156.868626 3210.21953,159.271217 C3186.56709,162.356554 3169.96048,172.357198 3153.90086,182.025452 C3144.92707,187.424542 3136.45827,192.527176 3126.7815,196.547797 C3110.26489,203.415192 3094.58226,206.179119 3079.51262,206.179119 C3047.72437,206.182113 3018.68106,193.866718 2990.27773,181.828813 Z M2993.23066,193.345923 C2972.77214,183.809427 2953.4466,174.797967 2933.93206,171.008922 C2901.41183,164.69551 2853.40397,166.204739 2811.05497,167.534299 C2793.92538,168.07331 2777.68276,168.550434 2763.49909,168.560416 C2710.01036,168.480562 2656.54163,168.370764 2603.07289,168.256973 C2407.42629,167.851735 2202.12489,166.788763 2003.03797,168.028225 C2003.03202,168.028263 1999.35682,168.022139 1992.01237,168.009854 L1992.01237,166.027837 C1999.35639,166.027765 2003.03127,166.027712 2003.03701,166.027676 C2202.18422,164.788128 2407.42297,164.974016 2603.09989,165.381251 C2656.55863,165.492048 2710.03736,165.601846 2763.51609,165.681699 C2777.50776,165.658742 2793.61538,165.19659 2810.63498,164.663568 C2853.67396,163.313047 2902.44281,161.777865 2936.30201,168.354793 C2956.93652,172.357446 2976.68105,181.566543 2997.58056,191.312655 C3024.79991,204.004359 3052.93925,217.124278 3081.92856,217.124278 C3096.15822,217.108308 3109.54591,214.03395 3122.96259,207.71954 C3131.66638,203.626054 3139.4002,198.351735 3147.58801,192.766985 C3163.80962,181.707285 3180.58723,170.261294 3207.2756,166.535133 C3227.59211,163.706325 3254.23648,164.476911 3277.74393,165.158659 C3288.22768,165.462103 3298.13045,165.754566 3307.03323,165.729612 L3317.50999,165.705655 C3384.27923,165.558954 3453.02428,165.647156 3520.95958,166.02627 C3520.96852,166.02632 3600.98154,166.026395 3760.99864,166.026495 L3760.99585,168.024495 C3600.98087,168.024407 3520.96943,168.024341 3520.96155,168.024297 C3453.08066,167.644469 3384.29078,168.436668 3317.54399,168.583374 L3307.07323,168.60733 C3297.97345,168.626295 3287.96369,168.336826 3277.36994,168.028392 C3253.26051,167.330673 3228.3111,166.609996 3209.05155,169.294069 C3184.45614,172.719781 3168.30752,183.735562 3152.68289,194.38801 C3144.33208,200.085552 3136.44627,205.467674 3127.35049,209.743825 C3112.71983,216.628189 3097.89718,219.982033 3082.05156,220 C3050.39731,220.001996 3021.33999,206.453863 2993.23066,193.345923 Z M644.715317,75.3730489 C661.982909,78.0720949 678.83451,81.3600599 695.134124,84.541221 C739.303079,93.1544118 781.012093,101.286486 830.600919,98.7012308 C843.950603,98.0035114 857.103292,96.0980089 869.819991,94.2573873 C885.788613,91.9476268 902.302223,89.5560165 919.661812,89.4492125 C947.455154,89.2705405 972.314566,94.8632752 994.170049,99.7882356 C1044.35886,111.10746 1082.24797,115.382613 1130.72682,118.943078 C1161.1051,121.176977 1190.17541,125.379264 1218.28475,129.440809 C1274.57341,137.577874 1327.74216,145.258776 1389.1207,137.97215 C1409.53222,135.5476 1429.32975,131.607832 1448.4793,127.792834 C1468.73182,123.760236 1489.67833,119.588892 1511.55781,117.157355 C1523.26853,115.857741 1534.68726,115.137063 1545.737,114.439344 C1564.13756,113.277477 1581.52015,112.182486 1599.55473,108.604054 C1615.05136,105.530696 1628.61404,102.339553 1641.72373,99.2582085 C1688.78271,88.1908558 1725.97995,78.3401363 1791.96238,92.1672237 C1798.76492,93.1786831 1816.82014,94.8802293 1846.14153,95.0430193 C1873.13196,95.1928679 1921.75145,94.5297837 1992,93.0537669 L1992,95.0513846 C1921.99993,96.6606409 1873.38044,97.3046406 1846.14153,96.9833838 C1818.15349,96.6532917 1800.2059,96.8038312 1791.96126,95.0430193 C1728.6872,81.7844752 1691.88558,90.6623317 1644.52666,101.799544 C1631.32497,104.906841 1617.6733,108.11595 1601.99067,111.228238 C1583.18411,114.960388 1564.57555,116.134233 1546.57198,117.267154 C1535.67824,117.951897 1524.4125,118.665587 1513.00377,119.930266 C1491.64128,122.306903 1470.94477,126.42734 1450.92524,130.413025 C1431.5637,134.268947 1411.53617,138.253634 1390.66667,140.735079 C1372.74909,142.862175 1355.5575,143.759528 1338.83289,143.759528 C1296.65389,143.759528 1257.36482,138.079952 1216.44579,132.166806 C1188.54445,128.134208 1159.69813,123.963862 1129.76784,121.762902 C1080.719,118.159516 1042.35991,113.827467 991.481113,102.356522 C970.249615,97.5683102 946.242183,92.1183135 919.76281,92.3049709 C903.307199,92.4077822 887.947562,94.6307021 871.683947,96.9833838 C858.686255,98.8659285 845.247573,100.811358 831.304903,101.54002 C780.126113,104.216108 737.677118,95.9363057 692.748181,87.1703952 C676.553564,84.012192 659.80796,80.748183 642.752364,78.079082 C613.563054,73.5124639 570.854065,69.0157176 533.184956,73.5304309 C521.383235,74.9448349 510.334497,77.0938903 498.635774,79.3697131 C485.157092,81.990902 471.217422,84.7009279 456.137779,86.1552585 C425.537503,89.1038465 393.97925,90.2018311 363.459972,91.2648799 C334.340194,92.2773412 303.129771,92.3974485 274.067068,95.0513846 C274.054072,95.0525714 193.701638,95.0543527 33.0097656,95.0567285 L33.0097656,93.0584532 C193.698408,93.05637 274.04842,93.0548079 274.059801,93.0537669 C303.483947,90.3623281 333.694674,89.4386382 362.991983,88.4171069 C393.311266,87.3620435 424.663524,86.2730423 454.869809,83.3613865 C469.371466,81.9619552 483.029143,79.3068286 496.23883,76.7375444 C497.404803,76.5109603 498.575775,76.283378 499.750747,76.0557957 C488.899004,77.3843572 477.701269,78.5621953 465.969546,79.3786966 C433.991303,81.6086037 401.265077,82.0118636 369.621826,82.4031454 C338.444672,82.7861702 305.394719,81.9125754 274.075212,84.0598115 C274.060406,84.0608266 193.705257,84.0623507 33.0097656,84.0643839 L33.0097656,82.0658036 C193.705273,82.063771 274.060432,82.0622472 274.075245,82.061232 C305.759202,79.8898407 338.102563,79.9204297 369.45983,79.5324145 C400.922085,79.1461235 433.456316,78.7438619 465.057568,76.5419035 C486.147069,75.0696058 505.658607,72.3875287 524.536161,69.7922922 C565.412194,64.1746033 604.02428,58.8663464 652.313138,66.3715708 C670.624704,69.2193438 688.106291,73.031347 705.013891,76.7215737 C742.756998,84.9524662 778.392154,92.7321868 821.991123,90.3745142 C836.584778,89.5869597 850.643445,87.0556059 864.240123,84.6100946 C879.212769,81.9170376 894.692403,79.1331473 911.128014,78.6011239 C937.435392,77.7417013 959.670865,83.2545826 980.17638,88.970092 C983.464302,89.8864101 986.684226,90.7887539 989.857151,91.6781215 C1027.47726,102.235743 1057.19556,110.574438 1102.74448,112.859244 C1137.15767,114.585076 1170.69187,118.161512 1203.12211,121.618167 C1268.72055,128.615324 1330.68909,135.219203 1399.31746,127.775865 C1418.12202,125.738605 1436.88857,122.70617 1455.03115,119.770559 C1478.1006,116.040405 1501.94404,112.186479 1526.39946,110.268 C1533.2073,109.735977 1539.70214,109.313752 1545.97699,108.903505 C1568.57346,107.428213 1588.086,106.156547 1609.94048,100.612722 C1624.26814,96.9773948 1636.59085,93.3021406 1648.51057,89.7536538 C1693.15483,76.4516596 1725.45019,65.6670602 1791.96238,81.4568822 C1797.98113,82.185407 1816.06171,85.0420603 1846.14153,85.1492666 C1873.0303,85.2450997 1921.64979,84.2157548 1992,82.061232 L1992,84.0643839 C1921.61421,86.2678718 1872.99472,87.3032089 1846.14153,87.1703952 C1815.48991,87.0187948 1797.62257,86.0953983 1791.95951,84.541221 C1728.6088,69.503218 1696.35458,78.9065042 1651.83549,92.1672237 C1640.38876,95.5809579 1627.41407,99.4448659 1612.89841,103.128105 C1590.05695,108.925465 1570.02642,110.232066 1546.82997,111.742294 C1540.59812,112.149547 1534.15127,112.568777 1527.42443,113.099803 C1503.486,114.976358 1479.88456,118.78936 1457.0561,122.47759 C1438.75753,125.435162 1419.83698,128.496542 1400.71743,130.566743 C1378.73895,132.947373 1357.47845,133.926576 1336.60895,133.926576 C1291.00203,133.926576 1247.24106,129.261139 1201.73214,124.409045 C1169.4729,120.970357 1136.12369,117.411888 1102.0645,115.706019 C1055.15761,113.352339 1024.92632,104.866914 986.657227,94.1266273 C983.490302,93.2412524 980.274378,92.3359141 976.993456,91.4215923 C956.51894,85.7160646 936.086423,80.6573497 911.545004,81.4568822 C896.040371,81.960957 881.670711,84.5442155 866.456071,87.28219 C852.497401,89.7935805 838.069743,92.3908133 822.691106,93.2222872 C777.382178,95.6677985 739.243081,87.3560545 702.383953,79.3128176 C685.637349,75.6585249 668.314759,71.8814576 650.345184,69.0885838 C614.016044,63.441948 583.036777,65.3813882 552.157507,69.1205252 C585.476719,67.6632001 619.885905,71.4881794 644.715317,75.3730489 Z M1061.33146,79.0540849 C1007.80273,77.6546535 985.293259,62.8108988 956.783934,44.0183918 C922.770738,21.59455 907.5021,26.2639794 870.622972,37.551262 C863.97513,39.5855282 856.444308,41.891296 848.123505,44.233996 C798.307683,58.2682367 775.535222,50.1321701 746.705904,39.8380646 C735.847161,35.9591842 723.546452,31.5672454 708.526808,28.0656725 C677.12655,20.7481036 652.328137,25.9824961 623.618816,32.0443697 C618.177945,33.1932609 612.549078,34.3820789 606.776215,35.5010251 C572.397028,42.1747757 535.317906,42.8944547 506.838579,42.7577057 C465.209564,42.5730447 423.360555,40.0486781 382.881512,37.6071594 C347.251138,35.4608702 310.494099,31.687859 274.047813,31.0799168 C274.039097,31.0797714 193.693081,31.0795537 33.0097656,31.0792637 L33.0097656,29.0868603 C193.695548,29.0871903 274.043414,29.087438 274.053365,29.0876034 C310.784887,29.6980997 347.906877,32.5982317 383.681493,34.7563919 C423.98054,37.1869307 465.639554,39.6983211 506.898578,39.8809858 C534.779918,40.0147403 571.05706,39.3190173 604.406271,32.8439022 C610.097136,31.7399285 615.680004,30.560094 621.074877,29.4221826 C649.971193,23.3213805 677.263547,17.5589572 711.292742,25.4894011 C726.839374,29.1147469 739.392077,33.5965208 750.461815,37.5472693 C778.481152,47.5489116 798.730673,54.7846307 844.94958,41.7645287 C853.170385,39.4497773 860.651208,37.1619765 867.252052,35.1406865 C904.09018,23.8693746 924.3807,17.6567776 961.709817,42.271598 C989.378163,60.5191053 1011.13565,74.8567889 1061.68445,76.1803595 C1148.2824,78.4452025 1237.80028,76.6065772 1324.35824,74.8268439 C1347.58769,74.3497196 1371.60712,73.8556265 1395.04656,73.4523667 C1412.73415,73.1519182 1430.42573,72.8115429 1448.10531,72.4691713 C1480.18455,71.8533017 1513.35377,71.2104816 1546.00299,70.8201979 C1587.18202,70.3241085 1612.05143,70.02366 1640.54076,54.4921675 C1648.27757,50.2709155 1654.41743,45.1014039 1660.35429,40.0985864 C1668.00611,33.6544145 1675.91592,26.9826603 1687.55364,21.9518941 C1713.25723,10.8469904 1748.12123,12.9791089 1792.02266,28.8315166 C1800.69978,31.2443128 1823.07873,36.9297119 1858.91192,37.0758437 C1885.88093,37.1858264 1930.24362,34.5230796 1992,29.0876034 L1992,31.0989231 C1930.31546,36.5972471 1885.95276,39.2572115 1858.91192,39.0788166 C1823.63249,38.8460696 1801.30417,34.3965751 1791.95817,31.0844977 C1748.24697,16.4237745 1714.84476,14.0832816 1691.75154,24.0630192 C1680.8348,28.7813588 1673.16698,35.2405033 1665.74216,41.4880362 C1659.6593,46.6156246 1653.36445,51.9188907 1645.21965,56.3607378 C1614.95036,72.8634476 1587.58401,73.1948394 1546.16199,73.6939233 C1513.55876,74.0862033 1480.41354,74.7260289 1448.3643,75.3428967 C1430.66872,75.6832719 1412.97014,76.022649 1395.26556,76.3260921 C1371.84311,76.7293519 1347.83668,77.2224468 1324.62723,77.6985729 C1266.7066,78.8893872 1207.46,80.107152 1148.6014,80.107152 C1119.34009,80.1101466 1090.19078,79.8106962 1061.33146,79.0540849 Z M1110.87429,97.8580435 C1099.52456,97.4418075 1088.17183,97.0245733 1076.81509,96.6203154 C1022.72637,94.6988422 998.416949,83.5043892 963.237781,65.3976236 C961.789815,64.6519922 960.32885,63.884401 958.847885,63.1108209 C946.168185,56.4450557 933.053495,49.5537046 914.147943,48.9188698 C897.36834,48.3549049 881.759709,53.2888488 866.659066,58.0600914 C858.147267,60.7491557 850.106458,63.2914893 841.759655,64.9584297 C794.570772,74.3971053 766.411438,66.4616705 733.802209,57.2745332 C723.902444,54.4856521 713.662686,51.6039414 702.226957,48.9957287 C661.553919,39.7277398 621.028878,45.5590366 578.109893,51.7337032 C552.655495,55.3959813 526.334118,59.1840284 499.781746,59.6002644 C458.836715,60.2430846 417.443695,58.5661625 377.414642,56.9451378 C354.857063,56.0310546 320.400477,54.7424833 274.044885,53.0794239 C274.036819,53.0791345 193.69178,53.0787005 33.0097656,53.0781217 L33.0097656,51.0815851 C193.686918,51.0815851 274.028313,51.0815852 274.033948,51.0815853 C308.937734,51.0823828 343.976659,52.7292099 377.943629,54.1053502 C417.787686,55.7183895 458.991712,57.386328 499.560752,56.7514933 C525.279143,56.3502298 551.19653,52.6210745 576.258937,49.0136957 C618.447939,42.9468313 662.066907,36.6683552 704.945892,46.4444116 C716.632616,49.1055272 726.985371,52.0231719 737.005134,54.8439944 C769.433366,63.9782288 795.043761,71.1919882 839.292714,62.3462243 C847.095529,60.7850897 854.897344,58.3236077 863.159149,55.709406 C879.132771,50.6606728 895.64038,45.44824 914.577932,46.0780839 C936.003425,46.797763 950.59708,54.4636924 963.466776,61.2302726 C964.929741,62.0008582 966.377707,62.760464 967.810673,63.4981101 C1001.96986,81.077843 1025.53931,91.9468933 1077.26808,93.7845204 C1088.63481,94.1887784 1099.99355,94.6060125 1111.34728,95.0202522 C1210.42493,98.6535834 1312.89251,102.407693 1413.96012,97.1583278 C1432.85167,96.1761306 1452.03922,94.8904904 1470.58778,93.6477714 C1498.43812,91.7811974 1527.23244,89.8497425 1555.79576,88.8964922 C1589.14497,87.7825368 1607.96453,85.6504502 1631.29397,75.9482582 C1640.73475,72.0264566 1648.51757,67.0745456 1656.04339,62.2853361 C1664.59919,56.8433247 1673.44898,51.2156541 1684.94971,46.8846036 C1724.0289,32.1683428 1753.98692,39.0591595 1791.97236,51.0724714 C1801.46983,52.4869752 1818.24596,54.7319999 1842.9831,55.0903981 C1870.63209,55.4909839 1920.30439,54.154713 1992,51.0815853 L1992,53.0781217 C1920.20152,56.3719368 1870.52922,57.6985993 1842.9831,57.0581091 C1818.18124,56.4814272 1801.12664,55.3731769 1791.97019,53.0683224 C1755.08503,41.4022944 1724.68873,35.5971059 1688.85061,49.0905547 C1677.96887,53.1880339 1669.36107,58.6639829 1661.04027,63.9572673 C1653.32045,68.866257 1645.34464,73.9389463 1635.42488,78.0613797 C1610.74146,88.3225456 1591.04593,90.5724161 1556.23675,91.7332853 C1527.89542,92.6795485 1499.2081,94.6010217 1471.47876,96.4626048 C1452.8762,97.7093165 1433.63965,98.9989494 1414.6521,99.9851393 C1378.46296,101.865688 1342.11382,102.597345 1305.84467,102.597345 C1240.24123,102.598343 1174.86277,100.201742 1110.87429,97.8580435 Z M1176.00275,88.761902 C1163.15405,88.5622684 1150.05636,88.607186 1136.20069,88.6560962 C1109.43932,88.7489258 1081.77198,88.8477445 1056.36258,87.0270862 C1010.69166,83.7540937 988.994172,71.1721874 963.864766,56.6049251 C960.866837,54.8641203 957.80491,53.0943686 954.644984,51.29567 C921.703764,32.6019817 903.546193,37.8503485 873.446905,46.5433927 C862.021176,49.8433358 849.071482,53.590458 833.367854,56.5081028 C790.694863,64.4535192 767.447413,56.8365 740.53005,48.0206812 C730.232294,44.6458755 719.582546,41.1582769 706.989844,38.2615937 C672.05867,30.2263421 645.641295,35.1952219 612.192087,41.4816833 C609.472151,41.9917471 606.713216,42.5127907 603.906283,43.031838 C576.049942,48.1893716 544.677684,50.6518517 505.178619,50.7806154 C463.445606,50.9013937 421.4506,48.7443529 380.811561,46.6432095 C345.836807,44.8331238 309.761298,41.457793 274.04357,41.0786519 C274.035796,41.0785694 193.691195,41.0784459 33.0097656,41.0782815 L33.0097656,39.0775354 C193.692609,39.0777162 274.038272,39.077852 274.046753,39.0779426 C310.028448,39.4626363 346.388788,42.0143485 381.495545,43.8293742 C421.954588,45.9215341 463.803598,48.0725859 505.13262,47.9488131 C543.833704,47.8230439 574.490979,45.4254446 601.600337,40.4076546 C604.397271,39.8906037 607.147206,39.3725545 609.855142,38.8624907 C643.372349,32.5610568 672.313664,27.1210418 709.752779,35.7302399 C722.77247,38.7247436 733.622214,42.2792194 744.111966,45.7119188 C770.593339,54.3840015 791.500844,61.2364241 831.039909,53.8789286 C846.233549,51.0501207 858.938249,47.3808556 870.148984,44.1437971 C900.860257,35.2720808 923.051732,28.8618466 959.436871,49.5129422 C962.610796,51.3166316 965.681723,53.0963649 968.694652,54.8421606 C994.021053,69.5252103 1014.02358,81.1249194 1057.31256,84.2262271 C1082.23797,86.008955 1109.64132,85.9151272 1136.15069,85.8222976 C1149.46237,85.7733873 1163.23005,85.7264734 1176.20974,85.9281034 C1259.73777,87.2287161 1323.77625,87.0650166 1383.84483,85.3870964 C1411.20318,84.6244961 1438.98352,83.4905774 1465.84289,82.3925927 C1489.06234,81.4463295 1513.06177,80.4631341 1536.73421,79.7254881 C1540.59512,79.6047097 1544.33903,79.4999021 1547.98395,79.3990871 C1583.7111,78.4009193 1609.52249,77.6772475 1636.93184,64.6102316 C1645.46764,60.5397029 1652.34348,55.4979569 1658.98132,50.6258994 C1667.01113,44.7307198 1675.31393,38.637903 1686.80966,33.9734644 C1726.80922,17.7521603 1758.4711,27.602378 1791.95221,39.0611833 C1801.83992,40.7503374 1825.08702,45.9708412 1861.00834,46.075251 C1888.0321,46.1537989 1931.69599,43.8213628 1992,39.0779426 L1992,41.0786519 C1931.6238,45.7966284 1887.93647,48.1318933 1860.93803,48.0844466 C1824.80189,48.0209414 1801.66156,43.647211 1791.95221,41.4816833 C1754.02056,29.6593342 1724.69076,22.385239 1690.89756,36.093573 C1680.06882,40.4865099 1672.00901,46.402651 1664.2082,52.1241494 C1657.39936,57.1249706 1650.35252,62.2944821 1641.36974,66.5776205 C1612.29042,80.4401763 1585.47206,81.1898004 1548.35194,82.227895 C1544.72102,82.3297081 1540.98911,82.4355139 1537.1402,82.5542959 C1513.53976,83.2919419 1489.56433,84.2711446 1466.38188,85.218406 C1439.47651,86.3163907 1411.65617,87.4533039 1384.20382,88.2228913 C1350.48562,89.1621673 1315.52545,89.6323044 1276.60637,89.6323044 C1245.98609,89.6273136 1212.89287,89.3368467 1176.00275,88.761902 Z M1162.59206,107.76076 C1137.64365,106.418224 1111.84726,105.030771 1086.21387,103.950753 C1033.03513,101.710864 1006.41576,91.6942494 968.906647,75.4650375 C967.668676,74.9300196 966.427706,74.3890126 965.176735,73.8420165 C950.671078,67.5016541 935.669433,60.9486818 915.610908,60.3637555 C898.708308,59.8716587 883.004679,64.088918 867.831038,68.1664339 C859.184243,70.4871743 850.242455,72.8897644 841.15367,74.3940034 C792.694816,82.4192733 761.315559,74.5227671 724.986418,65.3805473 C714.34767,62.703461 703.34093,59.9355414 691.402213,57.4580887 C646.983264,48.2529844 606.594219,53.7538876 563.835231,59.5811918 C539.7858,62.8561807 514.921388,66.2429644 488.687009,66.9985775 C450.256918,68.1035493 411.27884,67.1283393 373.579732,66.1830743 C340.990312,65.3660463 307.139073,63.5614141 274.038108,64.0715054 C274.031548,64.0716065 193.688767,64.0717584 33.0097656,64.0719609 L33.0097656,62.0776053 C193.686699,62.0774339 274.027928,62.0773054 274.033454,62.0772199 C307.445674,61.5596819 341.191352,62.5352424 373.921724,63.3542665 C411.440837,64.2945406 450.239919,65.2627635 488.309018,64.1707678 C513.839414,63.4381126 538.367833,60.0952483 562.087272,56.8641788 C605.976234,50.8851531 647.435253,45.2375192 693.944153,54.8778247 C706.102865,57.3981986 717.213602,60.1940669 727.953348,62.8931129 C762.972519,71.7049391 793.221804,79.313973 839.060719,71.7239043 C847.614517,70.307504 855.92032,68.0765988 864.713112,65.7149335 C880.687734,61.4248079 897.169344,56.9949388 916.001899,57.5339495 C938.299371,58.1817604 954.83998,65.4064997 969.430635,71.7847925 C970.671605,72.3277959 971.907576,72.8678047 973.137547,73.3978318 C1009.55469,89.1559084 1034.52609,98.9249776 1086.77486,101.123941 C1112.49125,102.207952 1138.33364,103.596403 1163.31305,104.938939 C1247.94104,109.492581 1327.86915,113.792688 1412.26716,107.805677 C1430.58972,106.506063 1449.16228,104.757273 1467.12286,103.065378 C1493.80723,100.551991 1521.40157,97.9537602 1548.98092,96.7449789 C1579.95719,95.3874706 1600.24971,94.0808688 1625.9691,84.7569825 C1639.01879,80.0236703 1650.29653,75.1196715 1660.24829,70.7936118 C1697.4317,54.6287686 1724.33487,41.6110628 1791.97037,61.0756461 C1796.5634,61.5212895 1809.88577,63.9417261 1828.00112,64.0719609 C1895.9906,64.560751 1991.9918,62.0591687 1992,62.06153 L1992,64.0715054 C1991.99184,64.0691565 1896.40114,67.0129296 1828.00112,66.0154828 C1810.33435,65.7578561 1797.18465,64.9050189 1791.97037,64.0626408 C1728.39424,45.7685488 1702.2762,56.4286351 1664.50319,72.851834 C1654.45343,77.221813 1643.0647,82.1707295 1629.80101,86.9759097 C1603.26364,96.6012427 1581.79215,98.1523957 1549.57291,99.5658014 C1522.32355,100.758612 1494.8992,103.343867 1468.37483,105.841283 C1450.34526,107.540165 1431.6877,109.29694 1413.21613,110.606536 C1383.21684,112.735629 1353.82754,113.578082 1324.61823,113.578082 C1270.8425,113.584071 1217.71076,110.72432 1162.59206,107.76076 Z M1180.99163,113.59872 C1150.96234,111.272989 1119.90307,110.86374 1088.89381,109.359501 C1042.6849,107.117616 1014.19558,97.2197829 981.196356,85.7588192 C977.515443,84.4801661 973.760532,83.1755607 969.898623,81.8499937 C930.073566,68.2050386 906.590121,72.1827376 874.070891,77.6846391 C859.848227,80.0932182 843.724609,82.8232074 824.075074,84.4063017 C781.083091,87.8689461 748.936851,80.193035 714.907657,72.065952 C698.858036,68.2339854 682.262429,64.2702607 664.339853,61.555244 C621.730861,55.1000922 584.941732,60.1857577 546.002653,65.567879 C524.661158,68.5204596 502.59368,71.5768497 479.013238,72.7217483 C442.374105,74.5084688 405.027988,74.265914 368.905843,74.0283501 C337.88457,73.8287679 305.424573,71.9759386 274.032854,73.061149 C274.027461,73.0613355 193.686432,73.0616153 33.0097656,73.0619885 L33.0097656,71.0735047 C193.688984,71.0730438 274.031927,71.0726982 274.038595,71.072468 C305.702142,69.9791558 337.83742,70.993983 368.991841,71.1945514 C404.929991,71.4291209 442.090111,71.6726738 478.359253,69.9029221 C501.368709,68.7829778 523.150194,65.7705071 544.218695,62.8558568 C584.121751,57.3379847 621.806859,52.1235556 666.265807,58.8631852 C684.660372,61.6480736 701.484974,65.6656994 717.744589,69.5505689 C750.813807,77.4490714 782.053068,84.9093783 822.992099,81.6084371 C842.091647,80.068264 857.940272,77.387185 871.920942,75.0205289 C904.97016,69.4277942 931.069542,65.008905 973.568537,79.5731727 C977.440445,80.8997379 981.205356,82.2093341 984.899269,83.4909817 C1018.49047,95.1585662 1045.01785,104.37465 1089.51679,106.528697 C1120.72605,108.042917 1151.87532,110.457486 1181.99461,112.789206 C1256.16285,118.532664 1326.21119,123.958705 1400.91943,117.612353 C1420.77496,115.924451 1440.75248,113.43502 1460.06803,111.023447 C1484.54045,107.972048 1509.85285,104.815841 1535.39624,103.222765 C1539.25915,102.982206 1542.99306,102.765604 1546.62398,102.552994 C1572.77336,101.023801 1593.41987,99.8170158 1617.32231,92.660152 C1631.77096,88.332096 1644.35167,83.7754596 1655.4514,79.7548393 C1695.78165,65.1568246 1724.97002,54.3542932 1791.95732,71.7878172 C1801.03196,72.9871202 1826.60664,76.0197431 1857.89819,76.0969664 C1929.88809,76.2746276 1991.98998,71.0708956 1992,71.0735047 L1992,73.0619885 C1991.99145,73.0597636 1932.24336,78.5890901 1857.89819,78.0999393 C1830.05621,77.9167541 1806.36478,76.1947956 1791.95732,74.0283501 C1728.56315,57.5318959 1699.14098,67.5439314 1659.27931,81.9797555 C1648.07758,86.037308 1635.37888,90.6338712 1620.69923,95.0357916 C1595.60982,102.548003 1574.34032,103.79172 1547.41096,105.365831 C1543.79605,105.578441 1540.07613,105.793047 1536.23622,106.033605 C1511.08682,107.599731 1485.97741,110.731982 1461.68799,113.760423 C1442.24945,116.183975 1422.15492,118.692371 1402.0494,120.400236 C1378.16196,122.429511 1354.46652,123.251004 1330.98108,123.251004 C1279.96929,123.260985 1229.91047,117.387765 1180.99163,113.59872 Z M1227.03554,140.330153 C1200.28117,135.378242 1172.61683,130.258639 1143.49752,127.74625 C1137.91965,127.265133 1132.43778,126.799987 1127.04191,126.341828 C1082.43396,122.555777 1043.91387,119.284781 999.674919,111.626837 C972.721557,106.962398 948.276135,103.13143 921.916759,103.459827 C906.010135,103.656466 890.261508,105.448177 875.028868,107.177004 C860.712207,108.802022 845.909557,110.482936 830.659918,110.915143 C777.956165,112.412395 730.522287,103.937949 684.623373,95.7449874 C667.40778,92.6736248 649.604202,89.4964563 631.682626,86.8632894 C583.31377,79.7603267 546.174649,77.8198883 518.165311,80.9431556 C506.240594,82.2717171 494.723866,84.6942706 482.531155,87.2605603 C470.553438,89.779936 458.168731,92.3851542 445.302035,93.8724244 C416.900707,97.1474133 387.496403,98.8562767 359.064076,100.509243 C331.440017,102.117516 301.503091,101.956887 274.044562,105.050578 C274.035757,105.05157 193.689609,105.053059 33.0061187,105.055045 L33.0061187,103.052201 C193.69115,103.050043 274.038453,103.048425 274.048028,103.047347 C301.838905,99.9182917 330.497116,99.2796628 358.292094,97.6634661 C386.551425,96.0204817 415.770734,94.3225981 443.82007,91.0885341 C456.138779,89.6681412 468.266492,87.1148277 479.989215,84.6473567 C491.907933,82.1399589 504.228641,79.5447224 516.727345,78.1532764 C545.856656,74.9082325 584.075752,76.8636434 633.544582,84.1273112 C651.644153,86.7864305 669.53473,89.9795696 686.833321,93.0679011 C734.2022,101.524379 778.961141,109.507726 830.279927,108.050401 C844.977579,107.634165 859.509235,105.984194 873.558903,104.389121 C889.107535,102.624361 905.182155,100.798711 921.747763,100.589096 C949.164114,100.225763 974.25652,104.165532 1001.82587,108.937772 C1045.55583,116.503885 1083.83393,119.752922 1128.15288,123.520007 C1133.55575,123.978166 1139.04062,124.444311 1144.62449,124.924429 C1174.33979,127.485728 1202.29213,132.662227 1229.32249,137.664046 C1280.95526,147.2235 1329.72011,156.250931 1387.97873,147.796449 C1407.15828,145.013557 1425.33785,140.517808 1442.91943,136.167793 C1461.70999,131.518327 1481.13853,126.714145 1502.01803,123.914284 C1516.1177,122.028744 1530.43336,121.238195 1544.27703,120.473599 C1559.79867,119.618169 1575.84129,118.732794 1591.38592,116.282292 C1606.35456,113.922623 1619.92624,111.444172 1633.04993,109.045575 C1685.16122,99.5294099 1726.3509,91.3258156 1791.97291,103.459827 C1791.97318,103.459877 1825.6708,105.931766 1825.96719,105.931818 C1830.36274,105.932591 1885.70701,104.971101 1992,103.047347 L1992,105.050578 C1907.26414,107.485406 1851.91988,108.485347 1825.96719,108.050401 C1808.9235,107.764763 1797.61684,106.817514 1791.97291,105.931818 C1728.61832,94.2134029 1686.14795,102.427952 1635.31588,111.714676 C1622.12319,114.124253 1608.48151,116.616678 1593.37287,118.998307 C1577.22325,121.547627 1560.84764,122.447975 1545.01402,123.320374 C1531.41434,124.070996 1517.35567,124.848569 1503.74499,126.670225 C1483.48347,129.384244 1464.34592,134.121548 1445.83136,138.698148 C1428.00078,143.112047 1409.55222,147.671678 1389.83569,150.534423 C1372.79609,153.005887 1356.59647,154.047974 1340.94084,154.047974 C1301.13279,154.04997 1264.83465,147.330304 1227.03554,140.330153 Z M1235.25934,147.218465 C1207.658,140.7703 1179.12067,134.102539 1148.81139,131.855663 L1137.18367,130.998237 C1090.45577,127.549567 1046.31582,124.295539 999.266929,118.542099 C957.665913,113.459429 924.578696,115.132358 886.269602,117.074793 C871.98494,117.799463 857.21029,118.545094 841.250667,118.966321 C783.331038,120.485532 729.823304,111.919255 678.094528,103.629471 C662.399899,101.116084 646.174283,98.5178533 630.005665,96.2260598 C592.357556,90.8878579 549.197577,85.4328703 513.408424,88.2866323 C499.678749,89.3796262 485.635081,92.2743131 472.049403,95.0731759 C461.481653,97.2521764 450.550911,99.5060395 439.700168,100.932421 C412.14682,104.557767 383.541497,106.783682 355.872151,108.937728 C329.355779,110.998156 300.394209,111.676433 274.077064,115.032695 C274.061846,115.034635 193.70608,115.037549 33.0097656,115.041434 L33.0097656,113.069189 C193.701061,113.065943 274.053062,113.063509 274.065769,113.061888 C300.686333,109.664303 328.181905,108.175638 354.854175,106.100935 C382.354525,103.960863 410.789852,101.751917 438.012208,98.1684945 C448.441961,96.7960137 459.171707,94.5840736 469.540462,92.445998 C483.465132,89.5772634 497.865792,86.6047194 512.349449,85.448841 C549.468571,82.4872769 593.45753,88.0370904 631.786623,93.4741109 C648.061238,95.7808769 664.341853,98.3880914 680.08548,100.910462 C733.614214,109.483726 784.153018,117.589847 840.891676,116.093594 C856.692302,115.680352 871.382954,114.936717 885.587618,114.21604 C922.886736,112.326508 958.115902,110.541784 1000.82489,115.7632 C1047.57779,121.477711 1091.57274,124.724751 1138.15164,128.159447 L1149.77537,129.016873 C1181.02463,131.331625 1210.00394,138.101199 1238.02328,144.649181 C1283.8322,155.352535 1327.09117,165.462978 1379.39993,157.675272 C1400.38044,154.552004 1419.112,148.917347 1437.22457,143.463357 C1453.14519,138.675146 1469.6038,133.722237 1487.70337,130.407321 C1504.89497,127.2591 1523.42953,126.473542 1541.3571,125.711939 C1554.37679,125.159953 1567.82248,124.587004 1580.53618,123.114707 C1596.4168,121.272089 1611.18045,119.251797 1625.45811,117.297384 C1679.93698,109.844414 1727.01569,103.041386 1791.96595,113.382204 C1797.77026,114.457085 1811.29589,116.750418 1829.3091,117.074793 C1898.46566,118.320138 1991.99068,113.060404 1992,113.061888 L1992,115.041434 C1991.99268,115.040268 1899.83204,121.233075 1829.3091,118.966321 C1812.46895,118.425043 1799.13732,117.480601 1791.96595,115.7632 C1728.87142,105.718123 1682.87475,112.437402 1627.20407,120.057318 C1612.85841,122.020715 1598.03476,124.047994 1582.02514,125.905584 C1568.84545,127.432781 1555.15378,128.012716 1541.91609,128.574685 C1523.61352,129.352258 1506.32693,130.085911 1489.96132,133.083409 C1472.42773,136.293517 1456.23112,141.169567 1440.57249,145.883914 C1422.11592,151.437721 1403.03438,157.178184 1381.27389,160.419235 C1367.88221,162.412577 1354.97651,163.270003 1342.46981,163.270003 C1303.92472,163.269005 1269.15854,155.141922 1235.25934,147.218465 Z M1243.18916,154.90845 C1217.12977,147.584893 1190.18041,140.0078 1161.52109,137.673085 C1136.94667,135.666768 1111.41228,134.327227 1086.72286,133.032603 C1060.21849,131.638162 1032.81413,130.197806 1006.11477,127.92897 C967.218687,124.62204 932.576506,125.840803 895.907374,127.131434 C878.518785,127.741315 860.538211,128.374153 841.738656,128.516891 C783.783027,128.968063 728.821327,121.241245 675.662585,113.785929 C659.461968,111.512103 642.708365,109.162416 626.102758,107.074249 L621.750861,106.525256 C587.003683,102.144297 543.753706,96.6923042 508.303545,99.0040611 C494.173879,99.9243719 479.559225,102.76416 465.430559,105.507125 C455.627791,107.414624 445.489031,109.383011 435.594265,110.694603 C408.7429,114.248081 380.931558,116.703574 354.036195,119.078216 C328.148067,121.364024 299.799273,122.70119 274.041829,126.031887 C274.034361,126.032853 193.690217,126.034302 33.0093994,126.036234 L33.0093994,124.056505 C193.691374,124.054422 274.036384,124.05286 274.044431,124.051819 C300.052495,120.686727 326.866911,118.576069 352.881222,116.277357 C379.641589,113.913695 407.309934,111.47018 433.899305,107.951638 C443.43708,106.689954 453.403844,104.753508 463.038616,102.878949 C477.531273,100.064115 492.516918,97.1534578 507.447565,96.1802441 C544.164696,93.7876357 588.085657,99.3254712 623.384822,103.776302 L627.736719,104.324296 C644.428324,106.422445 661.223927,108.777123 677.469542,111.057937 C730.166296,118.450368 784.697005,126.110308 841.645658,125.66812 C860.259218,125.528377 878.145794,124.897534 895.442385,124.288652 C932.521508,122.985045 967.550679,121.753306 1007.22974,125.124119 C1033.72611,127.377982 1061.02447,128.813347 1087.42784,130.198804 C1112.21226,131.502411 1137.84665,132.84894 1162.60606,134.865239 C1192.41536,137.29478 1219.86471,145.011616 1246.41408,152.474917 C1289.09907,164.472895 1329.42212,175.813081 1378.95095,167.157967 C1398.77948,163.692328 1415.69608,157.562579 1432.05969,151.63446 C1446.69834,146.330196 1461.83498,140.846261 1479.19857,137.172005 C1497.76413,133.242218 1518.75664,132.68025 1539.05716,132.141239 C1550.38089,131.836798 1562.09661,131.524371 1573.00235,130.614042 C1588.26299,129.343374 1602.91265,127.918989 1617.07131,126.541517 C1676.25175,120.785877 1727.40859,115.547876 1791.97445,124.0483 C1794.90769,124.502087 1803.92432,125.850209 1819.07501,126.036234 C1843.18385,126.332251 1900.82551,125.670779 1992,124.051819 L1992,126.036234 C1900.90658,127.712378 1843.26492,128.34329 1819.07501,127.92897 C1804.34742,127.676719 1795.25827,126.628457 1791.96965,126.032083 C1728.87529,117.725466 1676.71718,123.651768 1618.33828,129.328402 C1604.12962,130.709866 1589.43697,132.140241 1574.08933,133.417896 C1562.8136,134.355175 1550.90988,134.673591 1539.40115,134.980028 C1519.67562,135.508059 1499.2721,136.055055 1481.75851,139.760254 C1465.05991,143.293769 1450.21426,148.671897 1435.8566,153.874348 C1419.13099,159.932229 1401.8374,166.199726 1381.12189,169.820081 C1368.3332,172.054979 1356.07249,173.012222 1344.23077,173.012222 C1307.59963,173.015216 1274.98841,163.848042 1243.18916,154.90845 Z M1248.82702,163.114449 C1224.3076,155.059234 1198.9522,146.725531 1172.61883,144.183197 C1157.93017,142.7648 1141.17257,142.790753 1124.96795,142.807722 C1113.13523,142.825689 1100.90852,142.840661 1089.57279,142.291669 C1074.86614,141.583968 1060.01849,140.610754 1045.65383,139.667485 C1034.67909,138.949803 1023.32536,138.206168 1012.14862,137.586305 C976.548466,135.61692 941.72029,136.49431 908.031087,137.337761 C886.921587,137.868787 865.104103,138.417779 842.932627,138.287019 C785.989975,137.952633 730.725282,131.401657 677.276547,125.063291 C660.908934,123.120856 643.987335,121.115537 627.26773,119.317836 C623.568818,118.920566 619.788907,118.505328 615.942998,118.083103 C582.082799,114.370916 543.704707,110.162641 510.535492,111.758711 C495.678844,112.474397 480.216209,115.07163 465.246564,117.583021 C455.803787,119.168111 446.037018,120.810097 436.594241,121.940024 C409.354886,125.20004 381.29555,127.639562 354.166192,129.995238 C328.255078,132.249421 300.016218,133.985714 274.056745,137.021939 C274.043873,137.023444 193.691624,137.025704 33,137.028716 L33,135.053196 C193.694674,135.049825 274.04921,135.047296 274.063607,135.045611 C300.202507,131.985669 327.014313,129.474322 353.012219,127.212346 C380.041579,124.861661 407.997918,122.431122 435.030278,119.197058 C444.187062,118.099073 453.384844,116.556904 463.119614,114.922903 C478.433252,112.351623 494.268877,109.693502 509.883507,108.942879 C544.102698,107.295902 583.031777,111.56307 617.370964,115.328159 C621.207873,115.74739 624.978784,116.162628 628.671697,116.559899 C645.4543,118.365584 662.407899,120.375894 678.810511,122.320326 C731.899255,128.613774 786.797956,135.12682 842.996626,135.452222 C864.923107,135.580986 886.661593,135.03399 907.675096,134.509952 C941.624292,133.65552 976.733462,132.775136 1012.87261,134.77247 C1024.11434,135.395327 1035.50007,136.142955 1046.51281,136.863632 C1060.81647,137.80191 1075.60212,138.772129 1090.19778,139.472843 C1101.20752,140.003868 1113.26723,139.988895 1124.93196,139.972925 C1141.45856,139.949967 1158.54716,139.930004 1173.8728,141.410287 C1201.47814,144.074397 1227.37153,152.58278 1252.41094,160.808681 C1293.28497,174.241027 1331.88906,186.930735 1378.52796,177.418195 C1397.35251,173.579241 1412.60715,166.953403 1427.3448,160.54816 C1440.83148,154.688914 1454.77615,148.632031 1471.60375,144.567492 C1491.04229,139.873108 1513.78276,139.628557 1535.77223,139.392989 C1546.46198,139.276204 1556.56074,139.167403 1566.32951,138.58647 C1579.4092,137.807899 1592.3589,136.943485 1604.8776,136.112011 C1667.23288,131.958187 1726.17878,128.207962 1791.92764,135.037968 C1803.36308,135.84499 1870.05387,135.847538 1992,135.045611 L1992,137.028716 C1869.09293,138.067218 1802.40186,138.06464 1791.92678,137.020982 C1727.29684,130.30651 1667.53142,134.800999 1605.76658,138.915865 C1593.22388,139.749335 1580.25418,140.615745 1567.12749,141.396312 C1557.03773,141.998207 1546.30499,142.113995 1535.92823,142.22579 C1514.64473,142.453372 1492.63926,142.690936 1474.47969,147.075887 C1458.40007,150.957762 1444.76939,156.879893 1431.5867,162.605384 C1416.46706,169.178319 1400.82643,175.970852 1381.0329,180.006445 C1368.94318,182.472917 1357.32246,183.528979 1346.08472,183.531974 C1310.96555,183.531974 1279.5063,173.193949 1248.82702,163.114449 Z M1257.80981,172.819109 C1237.2993,165.178134 1216.0938,157.273642 1194.22132,153.613361 C1176.77873,150.697712 1156.03222,150.916311 1135.94269,151.128921 C1126.57892,151.229736 1117.73513,151.323564 1109.14733,151.120935 C1091.35975,150.700707 1073.33818,150.009975 1055.90859,149.3422 C1046.41781,148.979865 1036.60705,148.599563 1026.95927,148.273162 C991.146121,147.058392 955.380967,147.605388 920.791785,148.132421 C899.401291,148.458822 877.262815,148.800195 855.213337,148.722338 C796.974715,148.522704 739.346078,143.187497 683.607397,138.022976 C669.729725,136.739332 655.378065,135.410771 641.258399,134.183024 C636.489512,133.769783 631.661626,133.337576 626.788741,132.902375 C593.789522,129.955783 559.680329,126.913368 527.281096,127.450382 C509.271522,127.748834 491.021954,129.9468 473.370371,132.066908 C464.490581,133.134948 455.310799,134.238922 446.291012,135.091357 C416.617714,137.873251 386.232433,140.052252 356.853128,142.158386 C329.999794,144.081137 301.125488,145.590756 274.036913,148.034656 C274.030167,148.035265 193.687108,148.036178 33.0077362,148.037395 L33.0077362,146.039821 C193.688222,146.038504 274.032117,146.037516 274.039419,146.036857 C301.248254,143.582476 328.993621,141.282216 355.905151,139.353534 C385.214457,137.255385 415.52374,135.081376 445.063041,132.306469 C453.919832,131.475993 463.017616,130.382999 471.814408,129.324941 C489.787983,127.16291 508.374543,124.926015 527.063101,124.614587 C560.152318,124.0626 594.631502,127.142946 627.980713,130.119483 C632.844598,130.55169 637.662484,130.984894 642.420372,131.397138 C656.577037,132.626881 670.946697,133.959435 684.839368,135.244077 C740.298056,140.379651 797.636699,145.689904 855.275335,145.884547 C877.232816,145.963402 899.274294,145.624025 920.60379,145.297624 C955.352968,144.768595 991.292117,144.219603 1027.42126,145.444355 C1037.10103,145.77375 1046.9268,146.151057 1056.43058,146.516387 C1073.81116,147.184161 1091.77974,147.871899 1109.46932,148.287137 C1117.82012,148.484774 1126.55892,148.390946 1135.8057,148.295122 C1156.44521,148.074527 1177.8037,147.849939 1196.33427,150.950249 C1219.18373,154.771235 1240.80321,162.827449 1261.70272,170.618149 C1304.38371,186.525951 1344.69676,201.553368 1394.92957,183.564387 C1404.92633,179.98296 1414.00912,175.29756 1423.63189,170.334669 C1441.10747,161.321213 1459.17405,152.007309 1484.13046,149.025781 C1502.38502,146.843786 1523.77552,146.919647 1544.46903,146.995508 C1557.69472,147.04342 1570.19042,147.086341 1581.77815,146.582266 C1655.16785,143.37058 1721.57554,140.782177 1791.97367,146.034805 C1791.97978,146.035261 1858.65523,146.035945 1992,146.036857 L1992,148.034656 C1858.6544,148.033682 1791.97834,148.032952 1791.97181,148.032465 C1722.35398,142.839142 1655.33759,146.209381 1585.48906,149.269334 C1570.45741,149.92513 1557.21673,149.87622 1544.41903,149.831303 C1524.12451,149.75644 1503.14001,149.682575 1485.68442,151.770743 C1462.53497,154.53467 1445.10038,163.527164 1428.23578,172.221207 C1418.855,177.05733 1409.15623,182.062144 1398.71648,185.800283 C1381.21289,192.069775 1364.75428,194.586156 1349.04965,194.586156 C1316.20743,194.590149 1286.67913,183.577363 1257.80981,172.819109 Z M1261.27773,181.828813 C1241.4352,173.41825 1220.91868,164.720215 1200.44617,160.98008 C1168.66192,155.17773 1122.33802,156.098041 1081.45898,156.907555 C1063.21442,157.26989 1045.98382,157.61326 1030.79818,157.382683 C999.271928,156.905559 967.279685,157.219982 936.340417,157.526419 C910.493029,157.780952 883.765661,158.045466 857.414285,157.846831 C803.481561,157.437582 749.196845,154.252428 696.708087,151.172082 C683.222406,150.379537 669.276736,149.562037 655.559061,148.804428 C549.851562,142.961153 442.614099,148.811415 338.906553,154.473023 C324.866422,155.237282 303.243574,156.087681 274.038009,157.024218 L33.0107574,157.025638 L33.0107574,155.044974 C193.69323,155.044143 274.038614,155.043521 274.04691,155.043106 C274.059353,155.042483 317.135299,152.775471 338.18257,151.628245 C442.250108,145.946673 549.857562,140.074452 656.295043,145.962644 C670.029718,146.720253 683.988388,147.538751 697.484069,148.330298 C749.812831,151.404655 803.92155,154.579827 857.520282,154.983087 C883.749662,155.184717 910.425031,154.920203 936.208421,154.663674 C967.227687,154.359232 999.306928,154.039819 1030.99618,154.521934 C1045.95182,154.749516 1063.07542,154.408143 1081.19499,154.0498 C1122.67501,153.225314 1169.7029,152.289032 1202.70212,158.31597 C1224.23961,162.247753 1245.18411,171.130449 1265.43963,179.715691 C1307.09065,197.373281 1346.42571,214.050671 1393.6566,194.41571 C1402.90338,190.569769 1411.21118,185.570944 1420.00497,180.27766 C1436.67758,170.236091 1453.91917,159.859137 1479.54357,156.514277 C1498.89411,153.990908 1522.58255,154.420121 1545.498,154.835358 C1557.32472,155.049965 1568.49746,155.251594 1578.63722,155.044974 L1584.55508,154.923197 C1655.45351,153.452145 1722.47033,152.072023 1791.96619,155.041611 C1791.97397,155.041943 1858.6519,155.042441 1992,155.043106 L1992,157.025638 C1858.65248,157.024998 1791.97497,157.024517 1791.96748,157.024197 C1722.88091,154.069795 1655.51291,156.314882 1584.82607,157.780952 L1578.90821,157.903727 C1568.52346,158.118333 1557.22073,157.914706 1545.25801,157.697106 C1522.82454,157.290851 1499.63109,156.868626 1481.21953,159.271217 C1457.56709,162.356554 1440.96048,172.357198 1424.90086,182.025452 C1415.92707,187.424542 1407.45827,192.527176 1397.7815,196.547797 C1381.26489,203.415192 1365.58226,206.179119 1350.51262,206.179119 C1318.72437,206.182113 1289.68106,193.866718 1261.27773,181.828813 Z M1264.23066,193.345923 C1243.77214,183.809427 1224.4466,174.797967 1204.93206,171.008922 C1172.41183,164.69551 1124.40397,166.204739 1082.05497,167.534299 C1064.92538,168.07331 1048.68276,168.550434 1034.49909,168.560416 C981.010361,168.480562 927.541626,168.370764 874.072891,168.256973 C678.42629,167.851735 473.124893,166.788763 274.03797,168.028225 C274.032021,168.028263 193.690156,168.022139 33.0123748,168.009854 L33.0123748,166.027837 C193.689727,166.027765 274.031271,166.027712 274.037007,166.027676 C473.184218,164.788128 678.422973,164.974016 874.09989,165.381251 C927.558625,165.492048 981.03736,165.601846 1034.51609,165.681699 C1048.50776,165.658742 1064.61538,165.19659 1081.63498,164.663568 C1124.67396,163.313047 1173.44281,161.777865 1207.30201,168.354793 C1227.93652,172.357446 1247.68105,181.566543 1268.58056,191.312655 C1295.79991,204.004359 1323.93925,217.124278 1352.92856,217.124278 C1367.15822,217.108308 1380.54591,214.03395 1393.96259,207.71954 C1402.66638,203.626054 1410.4002,198.351735 1418.58801,192.766985 C1434.80962,181.707285 1451.58723,170.261294 1478.2756,166.535133 C1498.59211,163.706325 1525.23648,164.476911 1548.74393,165.158659 C1559.22768,165.462103 1569.13045,165.754566 1578.03323,165.729612 L1588.50999,165.705655 C1655.27923,165.558954 1724.02428,165.647156 1791.95958,166.02627 C1791.96852,166.02632 1858.64821,166.026395 1991.99864,166.026495 L1991.99585,168.024495 C1858.64753,168.024407 1791.96943,168.024341 1791.96155,168.024297 C1724.08066,167.644469 1655.29078,168.436668 1588.54399,168.583374 L1578.07323,168.60733 C1568.97345,168.626295 1558.96369,168.336826 1548.36994,168.028392 C1524.26051,167.330673 1499.3111,166.609996 1480.05155,169.294069 C1455.45614,172.719781 1439.30752,183.735562 1423.68289,194.38801 C1415.33208,200.085552 1407.44627,205.467674 1398.35049,209.743825 C1383.71983,216.628189 1368.89718,219.982033 1353.05156,220 C1321.39731,220.001996 1292.33999,206.453863 1264.23066,193.345923 Z" id="Lines_longer" transform="translate(1897.000000, 117.500000) scale(-1, 1) rotate(-180.000000) translate(-1897.000000, -117.500000) "></path>
        </g>
    </g>
</svg>