<svg xmlns="http://www.w3.org/2000/svg" viewBox="0 0 340.35 341.17"><defs><style>.cls-1{fill:#acb6db;}.cls-2{fill:#3f519c;}.cls-3{fill:#7d8fc6;}.cls-4{fill:#c11c20;}.cls-5{fill:#fff;}</style></defs><title>Ресурс 1</title><g id="Слой_2" data-name="Слой 2"><g id="Layer_1" data-name="Layer 1"><path class="cls-1" d="M169.08,80.62c-3.23,4.47-6.6,9.08-8.89,14.13-.64,1.41-1,2.93-1.7,4.32-1.49,3-4.09,5.6-6,8.37-4.07,5.87-7.08,12.46-10.37,18.78a84.87,84.87,0,0,1-6.41,10.92,7.45,7.45,0,0,1-3.12,2.82c.37-6.26.84-12.53.23-18.79-.32-3.27-1-6.44-1-9.74a16.27,16.27,0,0,0-1.2-6.91c-.18-.39-2.17-3.35-2.07-3.48,6.56-8,13.38-15.76,19.61-24,.1-.14,2.22-2.95,2-3.08,1.51.83,3,1.75,4.58,2.46a55,55,0,0,0,7.79,2.47C163.07,79,168.83,81,169.08,80.62Z"/><path class="cls-2" d="M67.25,96.7a20.47,20.47,0,0,1,4,.1,6,6,0,0,1,3.11,1.86c.79.79,1.22,1.66,2.45,1.29.75-.23.49-3.83.5-4.41,0-2,0-4.06.19-6.1s.55-4.13.7-6.21c.07-1-.24-12.83,0-12.87a8.14,8.14,0,0,1,3.35-.07,8.64,8.64,0,0,1,2.89,1.58c.24.18,1.86,1.32,1.84,1.57l1.17-16a23.6,23.6,0,0,1,3.8.65,8.85,8.85,0,0,1,6.05,6.4c.12.4.7,4.7.73,4.7,3.31.74,5.85,2.4,7,5.79.9,2.68.74,5.6.82,8.4.24,8.07-.94,16.1-.81,24.17a140.55,140.55,0,0,0,1.42,14.75c.56,4.63.92,9.29,1.46,13.92.58,5,.91,10,1.17,15,.22,4.18.09,8.42,1.36,12.46a69,69,0,0,1,3.2,12.87,73.66,73.66,0,0,1-.13,13.76c-.2,2.61-.43,5.22-.57,7.84-.31,6.19-.61,12.88.85,18.95a20.66,20.66,0,0,0,1.68,4.61c.85,1.64,1.85,3.45,3.54,4.36a6.24,6.24,0,0,0,6.1,0c5-2.49,10.44-6.07,16.33-4.51a13.65,13.65,0,0,1,8.24,6.23c1,1.77,1.53,3-.53,4-2.56,1.17-5.07,2.45-7.56,3.77-2.77,1.46-4.92,3.86-7.28,5.87-3.6,3.06-7.39,5.59-10.67,9-3,3.19-5.88,6.6-9.26,9.44a27.94,27.94,0,0,1-6.19,4c-6.34,2.94-11.07,8.43-17.44,11.22a13.8,13.8,0,0,1-5.47,1.25c-3.56,0-6.89-1.6-9.8-3.51a54.56,54.56,0,0,1-4.85-3.58,114.14,114.14,0,0,1-10.64-9.87,64.44,64.44,0,0,1-5.66-6.69c-1.43-2-2.82-4.72-1.59-7.18,2.25-4.5,4.34-9.16,5-14.19.74-5.47,1-11,1.38-16.51.21-3.16.45-6.33.8-9.48.27-2.49.55-5,.82-7.47,1.39-12.87,3.07-25.72,4.24-38.62q.51-5.56.89-11.14c.59-8.57.8-17.16.91-25.75,0-2.48.06-5,.1-7.45C67.05,108.87,67.25,102.78,67.25,96.7Z"/><path class="cls-3" d="M213.1,216.15a5.33,5.33,0,0,0-2.42-1.61c-.64-.26-2.61-1.28-3.27-1.09,1.52-.45,5.27-.8,4.9-3.17-.11-.66-1.12-1.48-1.49-2-1.47-2.21-2.89-4.46-4.13-6.8-1.66-3.13-3.19-6.24-5-9.32a9.18,9.18,0,0,0-3.15-2.87c-4.92-3.47-8.94-7.79-13.46-11.72a17.19,17.19,0,0,0-8.13-4.36c-5.82-1-12,1.32-17.68,2.46q-1.71.35-3.44.65c-.55.1-2.05.1-2.44.59a89.11,89.11,0,0,0,7.42-10,27.39,27.39,0,0,0,2.6-5.23,22.53,22.53,0,0,0,.81-5.48c0-.46,2.61-1.76,3-2a55,55,0,0,0,5.08-4.11,58.74,58.74,0,0,0,6.39-6.42,63.59,63.59,0,0,0,7.41-11.09,97.51,97.51,0,0,0,11.5-6.75,35.42,35.42,0,0,0,4.41-3.5,21.19,21.19,0,0,0,5.34-7.91,10.47,10.47,0,0,0,.59-4.93,39.47,39.47,0,0,0-1.68-5.25l-2,1.12q-11,6.32-21.94,12.63c-2.86,1.64-5.75,3.22-8.58,4.9a48.82,48.82,0,0,0-9.61,6.85c0-.92-.07-1.86,0-2.78.29-4.07,2.37-8,3.94-11.66,2.07-4.87,4.93-9.32,7.52-13.92a78.62,78.62,0,0,0,3.6-7c1.86-4.23,3.16-9,2.61-13.66A12.71,12.71,0,0,0,175,70.87c-1.63,3.63-3,7.62-5.16,11-3.24,5-6.57,9.66-8.91,15.17a19.66,19.66,0,0,1-2.1,4.15,110.78,110.78,0,0,0-6.36,9.27q-3.78,6.41-7.31,13c-2.46,4.59-4.52,9.45-7.5,13.75a14,14,0,0,1-3.51,4c-.24.15-3.17,1.41-3.15,1,.15-4.43.37-8.85.41-13.28,0-2.48.19-5,0-7.48s-.89-4.66-1.06-7,.09-4.76-.52-7.08c-.7-2.67-2.24-5.67-4.53-7.3a9.77,9.77,0,0,0-3.6-1.53c-.33-.07-4-.54-4-.46,0,7.82.25,15.7-.11,23.52a43.88,43.88,0,0,1-1.9,9.86,47.62,47.62,0,0,0-1.32,10.22,73,73,0,0,1-1.21,9.57c-.28,1.48-.61,2.94-.95,4.41q-.28,1.19-.57,2.38c-.12.5-.68,1.74-.54,2.22.81,2.79,1.64,5.58,2.36,8.39,1.14,4.45,2.14,8.8,1.92,13.43-.12,2.44-.26,4.88-.4,7.33-.49,8.42-1.24,17-.19,25.35.52,4.11,2.73,12,8.47,10.76,2.29-.5,4.23-2.27,6.28-3.31a23.48,23.48,0,0,1,5.8-2,15.51,15.51,0,0,1,10.08,1.51,14.73,14.73,0,0,1,6.85,7.76c.19.83.28,1.7.41,2.54-4.2,1.88-9,3.47-12.59,6.41C138,240,136,242,133.92,243.85s-4.4,3.16-6.44,4.94a65.21,65.21,0,0,0-5.32,5.74l-5,5.58c.28,0,1.13,1.25,1.3,1.43,2.8,3,5.43,6.57,9,8.79a62.47,62.47,0,0,0,7.41,4.12c4.34,2,9,2.87,13.54,1,3.63-1.52,6.72-4,10.25-5.75s7.38-3,11-4.63a119.44,119.44,0,0,0,11.83-6.18c4.73-2.85,9.14-6.2,13.69-9.32,2.13-1.46,4.35-3,5.6-5.3,1.43-2.7,1.75-5.8,2.83-8.64,2-5.36,6.77-9.11,9-14.38C213.18,219.73,214.18,217.67,213.1,216.15Zm-17.1,1.5a24.66,24.66,0,0,0-6.24,5.61,44.06,44.06,0,0,0-3.73,5.59c-1.51,2.62-4.79,2.09-7.31,2.85a16.85,16.85,0,0,0-5.59,2.81c-1.21,1-2.43,2.91-4.1,3.06-1.19.11-2.7-1-3.6-1.69a16.53,16.53,0,0,1-3.73-3.79c-2.23-3.18-4.44-6.37-6.72-9.51-2.78-3.83-5.53-7.41-9.47-10.18-.19-.13-.34-.21-.42-.41,2.37-2.2,4.87-4.1,6.78-6.75,1.79-2.48,3.16-5.19,5-7.62a22.34,22.34,0,0,0,11-2.17c.34-.18,5.71-4.07,5.44-4.33a62,62,0,0,0,6.89,6.55c2.64,1.94,5.35,2.55,8.53,2.95.29,0,1.55,4.92,1.86,5.48a14.21,14.21,0,0,0,5.48,5.1,27.11,27.11,0,0,0,4.64,2c1.12.4,2.73,1.16,3.93.71C201.75,215.1,198.69,216,196,217.65Z"/><path class="cls-1" d="M166.08,125.53a79.91,79.91,0,0,1,5.08-13.09,101.08,101.08,0,0,1,5.11-9.22,71.79,71.79,0,0,0,5.13-9.72,33.48,33.48,0,0,0,2.18-10.71c0-.08,7.66,1.16,8.21,1.25A63.1,63.1,0,0,1,205,87.43c2.91,1.15,5.79,2.41,8.78,3.36a110.11,110.11,0,0,0,19.84,4c4.41.55,8.84,1,13.24,1.62,2,.29,3.91.63,5.84,1,7.15,1.53,14.15,3.35,21.23,5.15a114.71,114.71,0,0,0,15.72,2.54c2.09.23,4.22.31,6.32.45a48.59,48.59,0,0,1-2.47,6.07,23.11,23.11,0,0,1-4.28,5.1A20.35,20.35,0,0,1,279,121.3c-8.25,1.38-16.7-.42-24.86-1.64-5.62-.84-11.35-2.05-17.06-1.79a8.49,8.49,0,0,0-4.36,1c-.19.12,1.83,5.25,2,5.75,2.16,6.06,4.74,12,6.62,18.13a49.23,49.23,0,0,1,1.7,18.53c-.34,4.3-1,8.56-1.38,12.85a188.73,188.73,0,0,0-.67,19c0,3.23,0,6.45,0,9.68-.13,10.77-.3,21.54-1,32.29-.19,3-.38,6-.71,9q-.45,4.81-1.06,9.6a119,119,0,0,1-2.23,12c-.67,2.86-1.42,6-3.53,8.17a10.64,10.64,0,0,1-4.31,2.63A5.67,5.67,0,0,1,222.6,275c-4.09-3.92-4.16-10.62-3.68-15.83.54-5.87,1.76-11.64,1.65-17.56-.1-5.49-.19-11-.4-16.46-.3-7.85-.75-15.69-1-23.54,0-.52,0-1,0-1.55l-6.75,7.58c-1.79-3.09-3.42-6.27-5.14-9.39-1.54-2.78-3.07-6-5.32-8.31a25.72,25.72,0,0,0-3.9-2.86c-5.51-3.81-9.56-9.45-15.1-13.2a15.61,15.61,0,0,0-4.68-2.22c-3.79-1-7.8-.44-11.56.43-2.47.57-4.88,1.37-7.34,2-.26.06-1.54.18-1.71.42,2.78-4,5.64-8,7.4-12.66a15.69,15.69,0,0,0,.76-5c6.58-4.9,12.88-9.83,17.66-16.6a23.18,23.18,0,0,0,2.86-5,3.78,3.78,0,0,1,2.35-2.53,72.44,72.44,0,0,0,9.28-5.24c4.18-2.81,8.16-6.26,10.37-10.88,2.37-4.94,1.24-10.12-1.18-14.73l-36.5,20.75Z"/><path class="cls-2" d="M19.6,250.19c-2.8-5.14-.44-7.63,1.7-8.79s4.22-.55,5.86,1l0,0a5.53,5.53,0,0,1,2.75-6.93c4.75-2.59,7.7,1,9.61,4.53l5.1,9.36L25,260.06Zm10.6,1-2.33-4.27a2.31,2.31,0,0,0-3.28-1.2c-.81.44-1.67,1.49-.55,3.54l2.22,4.07Zm8.09-4.41L35.68,242c-.44-.82-1.81-2.33-3.61-1.35s-1.45,2.69-.53,4.37l2.3,4.22Z"/><path class="cls-2" d="M19.91,213.22c3.28-.81,8.8-.79,11.48,6.68,1.94,5.39,1.25,11.22-7,14.2-11.11,4-14.46-4-15.18-6-2.69-7.47,1.3-11,4.34-12.31l1.76,4.88c-3.36,1.72-2.5,4.57-2.09,5.72s2,5,9.07,2.42c4-1.43,6.19-4.27,5-7.64a4.47,4.47,0,0,0-5.54-3Z"/><path class="cls-2" d="M10.42,194.83l4-.82,2.16,10.73,4.92-1L19,191.27l4.27-.86,3.56,17.66-22,4.43-3.5-17.35,4.27-.86,2.45,12.17,4.45-.9Z"/><path class="cls-2" d="M.11,178.88c-.26-4.54,1.21-8.53,6.73-8.85,7-.4,7.78,5.42,7.94,8.13l.29,5,7.7-.44.3,5.27L.71,189.29Zm10.62,4.55-.24-4.12c-.14-2.49-1.11-3.72-3.28-3.59-3,.17-2.76,2.75-2.69,3.94l.24,4.12Z"/><path class="cls-2" d="M10.78,166.61C5.58,166.11-.77,163,.08,154.2c.74-7.68,6.12-10.79,12.87-10.14s11.44,4.73,10.7,12.41C22.8,165.26,16,167.11,10.78,166.61Zm1.63-16.88c-2-.19-7.48-.5-8,4.89-.35,3.6,1.82,5.83,6.91,6.32,5.83.56,7.71-2,8-4.89C19.83,150.7,14.28,149.91,12.4,149.73Z"/><path class="cls-2" d="M22.24,120.68c3.16,1.19,7.7,4.33,5.68,12-1.45,5.54-5.32,10-13.83,7.72-11.42-3-9.66-11.47-9.12-13.54,2-7.68,7.32-8.37,10.55-7.69l-1.31,5c-3.74-.49-4.65,2.35-5,3.53s-1.14,5.23,6.1,7.13c4.09,1.07,7.51,0,8.42-3.48a4.47,4.47,0,0,0-2.86-5.61Z"/><path class="cls-2" d="M31.61,98.74c2.94,1.66,6.94,5.46,3.77,12.74-2.29,5.25-6.79,9-14.86,5.5-10.83-4.71-7.79-12.81-6.93-14.78,3.17-7.28,8.52-7.14,11.61-6L23.13,101c-3.62-1.05-5,1.61-5.44,2.73s-1.93,5,4.94,8c3.87,1.69,7.43,1.14,8.86-2.15a4.47,4.47,0,0,0-2-6Z"/><path class="cls-2" d="M28.86,75.69l2.84-4.45,18.89,12-2.84,4.45L35.41,79.87l7.53,15.39-2.84,4.45-18.89-12,2.84-4.45L36.26,91Z"/><path class="cls-2" d="M36.86,56.2c.81.72,2.13.83,3.45-.66s1.06-2.74.25-3.5l2.36-2.65c2.94,3-.19,6.86-.91,7.67-1.11,1.24-4.4,4.27-7.51,1.8Zm8.94-1.77,3.51-3.95L66,65.37l-3.51,3.95L51.61,59.6l5,16.39L53.1,79.94,36.36,65l3.51-3.95,10.81,9.61Z"/><path class="cls-2" d="M79.55,43.65c1.86,2.82,3.7,8-2.43,13.06C72.7,60.35,67,61.66,61.39,54.86c-7.5-9.12-1.11-15,.54-16.32,6.13-5,10.84-2.49,13.05,0l-4,3.29c-2.75-2.59-5.15-.82-6.09,0s-4,3.57.77,9.35c2.68,3.26,6.1,4.39,8.87,2.11a4.47,4.47,0,0,0,1-6.23Z"/><path class="cls-2" d="M86.37,22.51l5.32-3.2L89.26,32.72l14.41,5.53-5.54,3.33L85.69,36.29l-.06,0,5.64,9.38-4.53,2.72L75.21,29.22l4.53-2.72,4.85,8.06.05,0Z"/><path class="cls-2" d="M99.68,27.75c-2-4.83-2.14-11.91,6-15.23,7.14-2.9,12.4.42,15,6.7s1.11,12.33-6,15.23C106.45,37.78,101.65,32.58,99.68,27.75Zm15.71-6.38c-.75-1.84-3-6.85-8-4.82C104,17.91,103,20.86,105,25.6c2.2,5.43,5.31,5.93,8,4.82C118,28.4,116.11,23.11,115.39,21.36Z"/><path class="cls-2" d="M140.57,12l1,4-10.65,2.52L132,23.43l12.39-2.93,1,4.24-17.53,4.15-5.16-21.8L140,3l1,4.23L128.88,10.1l1,4.42Z"/><path class="cls-2" d="M160.17,11.66c.08-5.22,2.69-11.8,11.52-11.65,7.71.12,11.25,5.24,11.13,12S179,23.8,171.31,23.68C162.48,23.54,160.09,16.87,160.17,11.66Zm17,.27c0-2-.1-7.49-5.51-7.58-3.62-.06-5.67,2.28-5.75,7.4-.1,5.86,2.57,7.53,5.51,7.58C176.75,19.41,177.1,13.82,177.13,11.93Z"/><path class="cls-2" d="M193.25,10.57l5.33.9c1.83.31,8.37,1.57,7.18,8.64-.76,4.51-4.4,6.11-9.51,5.25l-10.54-1.77,3.71-22.09,17.17,2.89-.72,4.29-12-2Zm-1.61,9.59,4.23.71c2.05.34,4,.24,4.3-1.84.45-2.65-2.05-3.23-3.31-3.45l-4.32-.73Z"/><path class="cls-2" d="M220.73,27.32l6.39-16.88,5,1.88L225.7,29.2l6.52,2.47,6.39-16.88,5,1.88L237.2,33.55l3,1.12-3.5,8.53-4.34-1.64L234,37,207.7,27l7.93-21,5,1.88-6.39,16.88Z"/><path class="cls-2" d="M261,37.44,258.86,41l-9.33-5.72-2.63,4.28,10.86,6.66-2.28,3.71-15.36-9.42,11.71-19.09,15.08,9.25-2.28,3.71-10.58-6.49-2.38,3.87Z"/><path class="cls-2" d="M277.9,58.12c-2.42,2.35-7.19,5.13-13.29,0-4.4-3.67-6.75-9-1.11-15.8,7.56-9.07,14.49-3.87,16.13-2.5,6.09,5.08,4.46,10.18,2.47,12.82l-4-3.32c2-3.18-.15-5.21-1.09-6s-4.25-3.25-9,2.5c-2.71,3.24-3.18,6.81-.43,9.1a4.47,4.47,0,0,0,6.3-.21Z"/><path class="cls-2" d="M286.54,52.52l3.23-2.92,12.63,13.95-3.23,2.92-4.53-5L281.26,73.57l-3.54-3.91,13.38-12.11Z"/><path class="cls-2" d="M311.91,76.94c3.29,4.84,1.18,7.55-.83,8.92s-4.15,1-5.93-.42l0,0a5.53,5.53,0,0,1-2.06,7.16c-4.47,3-7.76-.26-10-3.57l-6-8.82L305.6,67.64Zm-18.28,5.21,3.07,4.53c.52.77,2,2.14,3.73,1s1.18-2.81.11-4.4l-2.7-4ZM301.26,77,304,81a2.31,2.31,0,0,0,3.38.88c.77-.52,1.51-1.65.2-3.58L305,74.46Z"/><path class="cls-2" d="M309.22,93.28c4.73-2.21,11.78-2.75,15.52,5.26,3.26,7,.21,12.4-5.94,15.27s-12.26,1.73-15.52-5.26C299.54,100.55,304.49,95.49,309.22,93.28Zm7.17,15.37c1.8-.84,6.69-3.37,4.4-8.27-1.53-3.28-4.53-4.1-9.17-1.94-5.31,2.48-5.65,5.6-4.4,8.27C309.5,111.58,314.68,109.45,316.39,108.65Z"/><path class="cls-2" d="M314.35,139.45l-1.07-5.17,21.94-4.53,3,14.67-4.26.88-2-9.5Z"/><path class="cls-2" d="M320.7,147.31c-.27,5,4,4.87,7.73,4.66l10.67-.63,1.23,16.53L318,169.53l-.39-5.27,18-1.33-.47-6.29-7.8.42c-4.32.22-11.58.06-11-9.42Z"/><path class="cls-2" d="M339.25,188.07l-.41,5.71-17.25-8.57c-4.46-2.22-4.66-4.7-4.48-7.29a13.43,13.43,0,0,1,.66-3.32l4.34.32a8.41,8.41,0,0,0-.48,2.24,2.67,2.67,0,0,0,1.93,3L340.35,173l-.46,6.29-11.27,4.09Z"/><path class="cls-2" d="M315.29,197.6l1.41-6.5,9.72,10.16,12-4.73-1.33,6.13-8.1,2.63,6.28,5.78L334,217.2l-9-9.31-13.06,5.26,1.41-6.5,8.52-2.9Z"/><path class="cls-2" d="M327.12,236l-1.9,4.93-20.9-8.07,1.9-4.93,13.64,5.27-10.43-13.59,1.9-4.93,20.9,8.06-1.9,4.93-13.49-5.21Z"/><path class="cls-2" d="M300.35,240.29l3.32-5.77,6.16,12.63,12.89-.84-3.13,5.43-8.52,0,4.22,7.42-3.13,5.43L306.45,253l-14,1,3.32-5.77,9-.17Z"/><path class="cls-2" d="M132.5,318.06l.66.13c2.17.44,5.65-.19,6.63-2.75l3.9.8-4.51,22-5.2-1.06,3.17-15.49-5.2-1.06Z"/><path class="cls-2" d="M153,334.91c.21,1.4,1.8,2.14,3.41,2.26,2.28.17,4.14-1.07,4.76-5.37a6.69,6.69,0,0,1-5.12,1.64c-4.65-.36-7.71-3.72-7.36-8.27.27-3.49,2.35-8.33,9.3-7.8,2.24.17,9.08.92,8.23,12-.18,2.4-1.27,12.35-10.34,11.65-5.67-.43-7.1-4.12-7.46-6.5Zm4.75-13.63c-3-.23-4.25,2.06-4.41,4.11a4,4,0,0,0,3.77,4.64,4,4,0,0,0,4.49-3.94C161.66,325.06,161.45,321.56,157.73,321.28Z"/><path class="cls-2" d="M186.26,340.38l-17.21.8,0-.9c-.14-3,.7-5,5.3-8.45,4.07-3.08,6.37-4.09,6.24-7-.11-2.41-1.86-3.29-3.75-3.2a3.53,3.53,0,0,0-3.65,3.87l0,.8-4.91.23,0-.67c-.15-3.24,1.41-7.82,8.57-8.15,1.06,0,8.42-.29,8.74,6.67.14,2.92-.85,5.28-5.75,8.47-2.31,1.49-3.81,2.4-4.7,4.18l11-.51Z"/><path class="cls-2" d="M199.82,320.85c-.88-1.71-3-1.53-4-1.36-3.14.54-3.71,3.25-3.33,6.41A6.65,6.65,0,0,1,197,323.1c3.67-.63,8.21.74,9.16,6.22.59,3.45-.22,8.58-6.9,9.73-2.31.4-9.25,1.4-11.21-10-.4-2.31-1.82-11.88,7.3-13.46,5.73-1,8,2.11,9,4.49Zm-1.5,14.38c2.66-.46,3.68-2.69,3.28-5a4,4,0,0,0-4.82-3.57,3.94,3.94,0,0,0-3.37,4.88A4.15,4.15,0,0,0,198.32,335.23Z"/><path class="cls-4" d="M298.06,271.4a163.32,163.32,0,0,1-76.21,54.69l2.42,7.08A171.13,171.13,0,0,0,304,275.91Z"/><path class="cls-5" d="M216.93,311.56A147.7,147.7,0,0,0,285.71,262l6.11,4.65h0l-6.2-4.72a147.7,147.7,0,0,1-68.78,49.56l2.53,7.38,0,0Z"/><path class="cls-5" d="M217.82,312l2.27,6.61a155.5,155.5,0,0,0,71.27-51.35L285.79,263A146,146,0,0,1,217.82,312Z"/><path class="cls-2" d="M291.83,266.65h0L285.71,262a147.7,147.7,0,0,1-68.78,49.56l2.49,7.28,0,0,2.48,7.23a163.32,163.32,0,0,0,76.21-54.69ZM220.08,318.6,217.82,312a146,146,0,0,0,68-49l5.56,4.24A155.5,155.5,0,0,1,220.08,318.6Z"/><path class="cls-5" d="M119.43,312l-2.27,6.61A155.5,155.5,0,0,1,45.9,267.25L51.46,263A146,146,0,0,0,119.43,312Z"/><path class="cls-4" d="M39.69,269.4a163.32,163.32,0,0,0,76.21,54.69l-2.42,7.08a171.13,171.13,0,0,1-79.71-57.25Z"/><path class="cls-2" d="M39.69,269.4a163.32,163.32,0,0,0,76.21,54.69l2.48-7.23,0,0,2.49-7.28A147.7,147.7,0,0,1,52,260l-6.11,4.65h0Zm6.71-4.16L52,261a146,146,0,0,0,68,49l-2.27,6.61A155.5,155.5,0,0,1,46.4,265.25Z"/></g></g></svg>